/* XPM */
static char *_630224807611[] = {
/* columns rows colors chars-per-pixel */
"50 50 119 2 ",
"   c black",
".  c #010000",
"X  c #020000",
"o  c #030000",
"O  c #030001",
"+  c #030101",
"@  c #040000",
"#  c #050101",
"$  c #060101",
"%  c #070101",
"&  c #090101",
"*  c #0A0101",
"=  c #0C0201",
"-  c #0D0201",
";  c #0F0201",
":  c #0E0908",
">  c #0F0908",
",  c #0E0909",
"<  c #0E0A09",
"1  c #0F0A09",
"2  c #100201",
"3  c #120302",
"4  c #140402",
"5  c #150503",
"6  c #160603",
"7  c #170704",
"8  c #110907",
"9  c #130907",
"0  c #170804",
"q  c #140906",
"w  c #190905",
"e  c #100908",
"r  c #110908",
"t  c #100A09",
"y  c #371910",
"u  c #361A11",
"i  c #341A13",
"p  c #331D17",
"a  c #3C1C11",
"s  c #321E18",
"d  c #301F1B",
"f  c #31221E",
"g  c #302220",
"h  c #411D11",
"j  c #452013",
"k  c #482215",
"l  c #492315",
"z  c #4D2516",
"x  c #502717",
"c  c #5A2B1A",
"v  c #5E2D1B",
"b  c #65301E",
"n  c #683320",
"m  c #6B3522",
"M  c #6F3824",
"N  c #6D3927",
"B  c #6D3B28",
"V  c #6E3D2B",
"C  c #6C3E2D",
"Z  c #6C3F2F",
"A  c #6D4130",
"S  c #714331",
"D  c #7F4931",
"F  c #814A32",
"G  c #854C32",
"H  c #854D33",
"J  c #8D5336",
"K  c #965436",
"L  c #975437",
"P  c #965537",
"I  c #9A5436",
"U  c #9C5536",
"Y  c #935638",
"T  c #9F5D3F",
"R  c #A55738",
"E  c #A35A3A",
"W  c #A55A3A",
"Q  c #A15C3D",
"!  c #9F6042",
"~  c #9E6144",
"^  c #936F5C",
"/  c #A16446",
"(  c #A36546",
")  c #A56546",
"_  c #A86645",
"`  c #AA6645",
"'  c #AF6644",
"]  c #B16745",
"[  c #B46946",
"{  c #B56A47",
"}  c #B56C49",
"|  c #B66E4B",
" . c #B56E4C",
".. c #B7704F",
"X. c #B67151",
"o. c #B77452",
"O. c #B87351",
"+. c #B97653",
"@. c #BB7653",
"#. c #BD7753",
"$. c #BC7754",
"%. c #BE7854",
"&. c #C87F5A",
"*. c #C97F5A",
"=. c #C9815B",
"-. c #CA835D",
";. c #CC845D",
":. c #CC865F",
">. c #CD8760",
",. c #CF8961",
"<. c #D08B62",
"1. c #D08C64",
"2. c #D38F66",
"3. c #D59369",
"4. c #D7966C",
"5. c #DA986E",
"6. c #DB9A71",
"7. c #DC9B73",
"8. c None",
/* pixels */
"8.8.8.8.8.8.8.8.8.8.8.8.8.8.8.8.8.8.8.8.8.8.8.8.8.8.8.8.8.8.8.8.8.8.8.8.8.8.8.8.8.8.8.8.8.8.8.8.8.8.",
"8.8.8.8.8.8.8.8.8.8.8.8.8.8.8.8.8.8.8.8.8.8.8.8.8.8.8.8.8.8.8.8.8.8.8.8.8.8.8.8.8.8.8.8.8.8.8.8.8.8.",
"8.8.8.8.8.8.8.8.8.8.8.8.8.8.8.8.8.8.8.8.8.8.8.8.8.8.8.8.8.8.8.8.8.8.8.8.8.8.8.8.8.8.8.8.8.8.8.8.8.8.",
"8.8.8.8.8.8.8.8.8.8.8.8.8.8.8.8.8.8.8.8.8.8.8.8.8.8.8.8.8.8.8.8.8.8.8.8.8.8.8.8.8.8.8.8.8.8.8.8.8.8.",
"8.8.8.8.8.8.8.8.8.8.8.8.8.8.8.8.8.8.8.8.8.8.8.8.8.8.8.8.8.8.8.8.8.8.8.8.8.8.8.8.8.8.8.8.8.8.8.8.8.8.",
"8.8.8.8.8.8.8.8.8.8.8.8.8.8.8.8.8.8.8.8.8.8.8.8.8.8.8.8.8.8.8.8.8.8.8.8.8.8.8.8.8.8.8.8.8.8.8.8.8.8.",
"8.8.8.8.8.8.8.8.8.8.8.8.8.8.8.8.8.8.8.8.8.8.8.8.8.8.8.8.8.8.8.8.8.8.8.8.8.8.8.8.8.8.8.8.8.8.8.8.8.8.",
"8.8.8.8.8.8.8.8.8.8.8.8.8.8.8.8.8.8.8.8.8.8.8.8.8.8.8.8.8.8.8.8.8.8.8.8.8.8.8.8.8.8.8.8.8.8.8.8.8.8.",
"8.8.8.8.8.8.8.8.8.8.8.8.8.8.8.8.8.8.8.8.8.8.8.8.8.8.8.8.8.8.8.8.8.8.8.8.8.8.8.8.8.8.8.8.8.8.8.8.8.8.",
"8.8.8.8.8.8.8.8.8.8.8.8.8.8.8.8.8.8.8.8.8.8.8.8.8.8.8.8.8.8.8.8.8.8.8.8.8.8.8.8.8.8.8.8.8.8.8.8.8.8.",
"8.8.8.8.8.8.8.8.8.8.8.8.8.8.8.8.8.8.8.8.8.8.8.8.8.8.8.8.8.8.8.8.8.8.8.8.8.8.8.8.8.8.8.8.8.8.8.8.8.8.",
"8.8.8.8.8.8.8.8.8.8.8.8.8.8.8.8.8.8.8.8.8.8.8.8.8.8.8.8.8.8.8.8.8.8.8.8.8.8.8.8.8.8.8.8.8.8.8.8.8.8.",
"8.8.8.8.8.8.8.8.8.8.8.8.8.8.8.8.8.8.8.8.8.8.8.8.8.8.8.8.8.8.8.8.8.8.8.8.8.8.8.8.8.8.8.8.8.8.8.8.8.8.",
"8.8.8.8.8.8.8.8.8.8.8.8.8.8.8.8.8.8.8.8.8.g t & O 8.8.8.8.8.8.8.8.8.8.8.8.8.8.8.8.8.8.8.8.8.8.8.8.8.",
"8.8.8.8.8.8.8.8.8.8.8.8.8.8.8.8.8.8.8.f i 4 - & & - & 1 8.8.8.8.8.8.8.8.8.8.8.8.8.8.8.8.8.8.8.8.8.8.",
"8.8.8.8.8.8.8.8.8.8.8.8.8.8.8.8.8.8.t 8 8 4 - 3 & % O O % % 8.8.8.8.8.8.8.8.8.8.8.8.8.8.8.8.8.8.8.8.",
"8.8.8.8.8.8.8.8.8.8.8.8.8.8.8.8.8.i t q 8 7 7 4 % O % O O O % 8.8.8.8.8.8.8.8.8.8.8.8.8.8.8.8.8.8.8.",
"8.8.8.8.8.8.8.8.8.8.8.8.8.8.8.8.A 4 3 q 8 8 8 w 4 - 3 3 O O O t 8.8.8.8.8.8.8.8.8.8.8.8.8.8.8.8.8.8.",
"8.8.8.8.8.8.8.8.8.8.8.8.8.8.8.8.9 & w y i x M G V M x i - % O O 1 8.8.8.8.8.8.8.8.8.8.8.8.8.8.8.8.8.",
"8.8.8.8.8.8.8.8.8.8.8.8.8.8.8.g 3 b G ` [ #.*.<.<.:.%.T a & O O O 8.8.8.8.8.8.8.8.8.8.8.8.8.8.8.8.8.",
"8.8.8.8.8.8.8.8.8.8.8.8.8.8.8.s h R [ #.*.-.>.<.2.2.1.%.b 0 O O O s 8.8.8.8.8.8.8.8.8.8.8.8.8.8.8.8.",
"8.8.8.8.8.8.8.8.8.8.8.8.8.8.8.p v U K K I #.K K K G ( %.K 0 O O O i 8.8.8.8.8.8.8.8.8.8.8.8.8.8.8.8.",
"8.8.8.8.8.8.8.8.8.8.8.8.8.8.8.8.h z z v M  .W G G G U X.) y 3 O O 8 8.8.8.8.8.8.8.8.8.8.8.8.8.8.8.8.",
"8.8.8.8.8.8.8.8.8.8.8.8.8.8.8.8.c n F K W *.O.[ ! ! %.:.=.b 0 O O t 8.8.8.8.8.8.8.8.8.8.8.8.8.8.8.8.",
"8.8.8.8.8.8.8.8.8.8.8.8.8.8.8.8.J T } W } &.*.*.=.,.2.3.:.M - O O : 8.8.8.8.8.8.8.8.8.8.8.8.8.8.8.8.",
"8.8.8.8.8.8.8.8.8.8.8.8.8.8.8.8.` %.%.] :.:.X.*.1.2.5.5.1.V 2 O O 1 8.8.8.8.8.8.8.8.8.8.8.8.8.8.8.8.",
"8.8.8.8.8.8.8.8.8.8.8.8.8.8.8.8.[ @.%.K ` [ ` O.:.5.5.3.,.m 0 w a d 8.8.8.8.8.8.8.8.8.8.8.8.8.8.8.8.",
"8.8.8.8.8.8.8.8.8.8.8.8.8.8.8.8.Y ..} I ` @.%.%.%.2.3.1.:.( h G _ 8.8.8.8.8.8.8.8.8.8.8.8.8.8.8.8.8.",
"8.8.8.8.8.8.8.8.8.8.8.8.8.8.8.8.J ] ' R [ *.=.=.&.:.2.1.=.@.! ..K 8.8.8.8.8.8.8.8.8.8.8.8.8.8.8.8.8.",
"8.8.8.8.8.8.8.8.8.8.8.8.8.8.8.8.8.W W G G F K @.&.=.2.1.=.@.( X.f 8.8.8.8.8.8.8.8.8.8.8.8.8.8.8.8.8.",
"8.8.8.8.8.8.8.8.8.8.8.8.8.8.8.8.8.R W b y h z M @.=.2.,.&.X.H 1 8.8.8.8.8.8.8.8.8.8.8.8.8.8.8.8.8.8.",
"8.8.8.8.8.8.8.8.8.8.8.8.8.8.8.8.8.Y [ G G G I I O.;.,.:.X.( C % 8.8.8.8.8.8.8.8.8.8.8.8.8.8.8.8.8.8.",
"8.8.8.8.8.8.8.8.8.8.8.8.8.8.8.8.8.8.] W W ' [ #.:.<.-.@.( ~ b 1 8.8.8.8.8.8.8.8.8.8.8.8.8.8.8.8.8.8.",
"8.8.8.8.8.8.8.8.8.8.8.8.8.8.8.8.8.8.K W [ *.-.>.<.<.#.( P H n 1 8.8.8.8.8.8.8.8.8.8.8.8.8.8.8.8.8.8.",
"8.8.8.8.8.8.8.8.8.8.8.8.8.8.8.8.8.8.^ U W  .#.;.&. .( G P ( Z 8.8.8.8.8.8.8.8.8.8.8.8.8.8.8.8.8.8.8.",
"8.8.8.8.8.8.8.8.8.8.8.8.8.8.8.8.8.8.f v M K K T H D G K ) X.J 8.8.8.8.8.8.8.8.8.8.8.8.8.8.8.8.8.8.8.",
"8.8.8.8.8.8.8.8.8.8.8.8.8.8.8.8.8.8.f c z b b M B H ~ ( $.$.P s 1 8.8.8.8.8.8.8.8.8.8.8.8.8.8.8.8.8.",
"8.8.8.8.8.8.8.8.8.8.8.8.8.8.8.8.8.O a G M M M G U )  .$.=.$.( l O O 1 8.8.8.8.8.8.8.8.8.8.8.8.8.8.8.",
"8.8.8.8.8.8.8.8.8.8.8.8.8.8.1 8 O O l E Q U Q ..$.$.$.&.>.$.( y O O O O 1 8.8.8.8.8.8.8.8.8.8.8.8.8.",
"8.8.8.8.8.8.8.8.8.8.g s 8 O O O O O j E ..[ ) o.&.$.#.>.>.&.~ 7 O O O O O % 1 8.8.8.8.8.8.8.8.8.8.8.",
"8.8.8.8.8.8.8.1 t 8 O O O O O O O O : K ..%.} _ } $.=.:.:.=.G 3 O O O O O O O O O 1 ^ 8.8.8.8.8.8.8.",
"8.8.8.8.8.1 O O O O O O O O O O O O O A [ %.:.%.%.=.:.:.:.:.A O O O O O O O O O O O % O 8.8.8.8.8.8.",
"8.8.8.8.8.O O O O O O O O O O O O O O i ..%.2.2.:.:.2.2.2.:.i O O O O O O O O O O O O O O 8.8.8.8.8.",
"8.8.8.8.% O O O O O O O O O O O O O O O ! >.4.7.7.4.4.5.3.! O O O O O O O O O O O O O O O O 8.8.8.8.",
"8.8.8.1 O O O O O O O O O O O O O O O O 8 2.7.7.7.7.6.5.:.: O O O O O O O O O O O O O O O O 8.8.8.8.",
"8.8.8.O O O O O O O O O O O O O O O O O O ~ 7.7.7.7.6.4.l O O O O O O O O O O O O O O O O O O 8.8.8.",
"8.8.8.O O O O O O O O O O O O O O O O O O i ,.6.5.3.,.A % O O O O O O O O O O O O O O O O O O 8.8.8.",
"8.8.O O O O O O O O O O O O O O O O O O O % M X.X.( A 8 O O O O O O O O O O O O O O O O O O O O 8.8.",
"8.8.O O O O O O O O O O O O O O O O O O O O : S J s t O O O O O O O O O O O O O O O O O O O O O 8.8.",
"8.8.8.8.8.8.8.8.8.8.8.8.8.8.8.8.8.8.8.8.8.8.8.8.8.8.8.8.8.8.8.8.8.8.8.8.8.8.8.8.8.8.8.8.8.8.8.8.8.8."
};
