/* XPM */
static char *_629642019886[] = {
/* columns rows colors chars-per-pixel */
"50 33 220 2 ",
"   c #4A2506",
".  c #5F3307",
"X  c #583216",
"o  c #6E3A04",
"O  c #62360E",
"+  c #743C05",
"@  c #733A0A",
"#  c #653816",
"$  c #743F11",
"%  c #7A420A",
"&  c #74400A",
"*  c #744314",
"=  c #8C4D0D",
"-  c #85420E",
";  c #994E0C",
":  c #8F520F",
">  c #92540A",
",  c #9E5509",
"<  c #834C13",
"1  c #844B1A",
"2  c #8B5212",
"3  c #88521B",
"4  c #9B5B15",
"5  c #92571A",
"6  c #905A1D",
"7  c #9B5A18",
"8  c #A14505",
"9  c #AC5A0A",
"0  c #A95507",
"q  c #B95E0C",
"w  c #A35E14",
"e  c #A95C13",
"r  c #A15D18",
"t  c #B05F11",
"y  c #AC650F",
"u  c #BF6A0F",
"i  c #A36114",
"p  c #AB6313",
"a  c #AE6815",
"s  c #A2631D",
"d  c #AA6A1D",
"f  c #B56A14",
"g  c #B56C1E",
"h  c #B96C1A",
"j  c #BE6713",
"k  c #BF731C",
"l  c #BA7217",
"z  c #AA6A24",
"x  c #A66B2D",
"c  c #AD6A29",
"v  c #B26A24",
"b  c #B56F2C",
"n  c #B86D21",
"m  c #B47123",
"M  c #BA7324",
"N  c #B97628",
"B  c #A27030",
"V  c #B07438",
"C  c #B97931",
"Z  c #C4670B",
"A  c #D7750E",
"S  c #CD6F18",
"D  c #C57217",
"F  c #C37719",
"G  c #C3781D",
"H  c #C97C1E",
"J  c #CD7D13",
"K  c #D2741A",
"L  c #D27D1D",
"P  c #DC7F1E",
"I  c #CB7D23",
"U  c #C47D2C",
"Y  c #CB7F2D",
"T  c #C77526",
"R  c #D27A24",
"E  c #DB7C23",
"W  c #D97E2D",
"Q  c #D57725",
"!  c #C57D34",
"~  c #D67C35",
"^  c #DC8D1E",
"/  c #DF861D",
"(  c #E3841D",
")  c #E0881B",
"_  c #CE8723",
"`  c #CF872D",
"'  c #C78527",
"]  c #D48323",
"[  c #D58A24",
"{  c #DD8E22",
"}  c #D3852B",
"|  c #D58B2C",
" . c #D98B2B",
".. c #D88621",
"X. c #D4902E",
"o. c #CB8633",
"O. c #C9853A",
"+. c #D48432",
"@. c #D28A34",
"#. c #DC8A33",
"$. c #DA8238",
"%. c #DB9336",
"&. c #DD933B",
"*. c #D99537",
"=. c #E28724",
"-. c #E48A22",
";. c #E98E2A",
":. c #E38929",
">. c #E4942C",
",. c #EB942B",
"<. c #ED9A2D",
"1. c #E29427",
"2. c #F2942B",
"3. c #F29A2B",
"4. c #E28C34",
"5. c #EB8C3B",
"6. c #E39533",
"7. c #EE9034",
"8. c #EA9B33",
"9. c #E2953D",
"0. c #E49C3C",
"q. c #EC9D3C",
"w. c #E59837",
"e. c #F19234",
"r. c #F39D34",
"t. c #F49E39",
"y. c #F6993B",
"u. c #F3A22E",
"i. c #ECA43D",
"p. c #E6A03B",
"a. c #F4A433",
"s. c #F3A43C",
"d. c #F9A53C",
"f. c #F5AA3D",
"g. c #F8AA3D",
"h. c #FAA834",
"j. c #CA8D45",
"k. c #D48849",
"l. c #D59443",
"z. c #D49944",
"x. c #DF9E4B",
"c. c #DD9947",
"v. c #E39644",
"b. c #EC994E",
"n. c #E29C46",
"m. c #E79758",
"M. c #DEA345",
"N. c #DFA057",
"B. c #EAA144",
"V. c #E5A54B",
"C. c #EEA64B",
"Z. c #EBA647",
"A. c #F4A343",
"S. c #F5A941",
"D. c #F9A844",
"F. c #F4A44A",
"G. c #F5AC4D",
"H. c #FAAE4B",
"J. c #FBA64A",
"K. c #EEB14D",
"L. c #FBB345",
"P. c #F5B24B",
"I. c #FBB24C",
"U. c #FCBB4E",
"Y. c #EFA758",
"T. c #EAAC59",
"R. c #EBA653",
"E. c #F5AB54",
"W. c #FAAC51",
"Q. c #F6A759",
"!. c #EAB256",
"~. c #F2B455",
"^. c #FBB453",
"/. c #FCBA55",
"(. c #F6B45C",
"). c #FAB55C",
"_. c #FCBB5C",
"`. c #F7BA58",
"'. c #D8AA62",
"]. c #EEAC65",
"[. c #F5AB60",
"{. c #EAB766",
"}. c #FDBC63",
"|. c #FEB66A",
" X c #FDBC6B",
".X c #F9B661",
"XX c #F9B972",
"oX c #FEC44F",
"OX c #FCC054",
"+X c #FDC45B",
"@X c #FBC55A",
"#X c #FDC464",
"$X c #FECD66",
"%X c #FDC46A",
"&X c #FFCD6C",
"*X c #FFD46A",
"=X c #FEC572",
"-X c #FECA75",
";X c #FDC37B",
":X c #FECC7C",
">X c #F7C574",
",X c #FED474",
"<X c #FED37B",
"1X c #FEDD7D",
"2X c #F8BB80",
"3X c #FCC382",
"4X c #FDCC84",
"5X c #FDCD8B",
"6X c #FED284",
"7X c #FFD984",
"8X c #FED58D",
"9X c #FEDA8B",
"0X c #FED595",
"qX c #FEDA93",
"wX c #FEDB9B",
"eX c #FEE193",
"rX c #FEE19F",
"tX c #FED8A0",
"yX c #FEE4A3",
"uX c None",
/* pixels */
"uXuXuXuXuXuXuXuXuXuXuXuXuXuXuXuXuXuXuXuXuXuXuXuXuXuXuXuXuXuXuXuXuXuXuXuXuXuXuXuXuXuXuXuXuXuXuXuXuXuX",
"uXuXuXuXuXuXuXuXuXuXuXuXuXuXuXuXuXuXuXuXuXuXuXuXuXuXuXuXuXwXwX0XuXuXuXuXuXuXuXuXuXuXuXuXuXuXuXuXuXuX",
"uXuXuXuXuXuXuXuXuXuXuXuXuXuXuXuXuXuXuXuXuXuXuXuXuXuXuX6X8X4X4X=XwXuXuXuXuXuXuXuXuXuXuXuXuXuXuXuXuXuX",
"uXuXuXuXuXuXuXuXuXuXuXuXuXuXuXuXuXuXuXuXuXuXuXuXuX%X:X}.}.;X;X4X5X<XwXyXyXuXuXuXuXuXuXuXuXuXuXuXuXuX",
"uXuXuXuXuXuXuXuXuXuXuXuXuXuXuXuXuXuXuXuXuXuXuXuXuX X5X=X=X3X;XwX0X:X<X*X6XqXwXuXuXuXuXuXuXuXuXuXuXuX",
"uXuXuXuXuXuXuXuXuXuXuXuXuXuXuXuXuXuXuXuXuXuXuXuXtXwX5X XXX|.|.5X%X-X&X+X#X<X<X,XuXuXuXuXuXuXuXuXuXuX",
"uXuXuXuXuXuXuXuXuXuXuXuXuXuXuXuXuXuXuXuXuXuXuXuXwX0XQ.Q.;X;X|.W.D.L.a.3.h.h.d.).uXuXuXuXuXuXuXuXuXuX",
"uXuXuXuXuXuXuXuXuXuXuXuXuXuXuXuXuXuXuXuXuXuXuX4X5X_.y.=XU.d.H.D.,.s.,...,.<.J. XuXuXuXuXuXuXuXuXuXuX",
"uXuXuXuXuXuXuXuXuXuXuXuXuXuXuXuXuXuXuXuXuXuXuX-X3XJ.e.A.2.2.W.2.2.S.^.S.P._././.7XuXuXuXuXuXuXuXuXuX",
"uXuXuXuXuXuXuXuXuXuXuXuXuXuXuXuXuXuXuXuXuXuXuX;Xb.5.:.~ E K A ( ;.d.L.`.t.^.^._.=XuXuXuXuXuXuXuXuXuX",
"uXuXuXuXuXuXuXuXuXuXuXuXuXuXuXuXuXuXuXuXuXuXuXuXn.T 4.Q K Z S =.q.t.t.I.^./.#X_.f.}.uXuXuXuXuXuXuXuX",
"uXuXuXuXuXuXuXuXuXuXuXuXuXuXuXuXuXuXuXuXuXuXuXuX2Xv.Y W E Z K P s.i.-.r.H.^.d.H.^.=XuXuXuXuXuXuXuXuX",
"uXuXuXuXuXuXuXuXuXuX$X7X*XoXoXoX*X1X1XuXuXuXuXuXuXE.I e q 0 D L :./ 6.^.^.s.d./.-X4XuXuXuXuXuXuXuXuX",
"uXuXuXuXuXuXuXuXuXU.a.P.a.,.,.<.oX@X&XeX9XeXuXuXuXQ.#.e , D } / ] J Z.D.I.W.^.%X-X-XuXuXuXuXuXuXuXuX",
"uXuXuXuXuXuXuXuXuX4X4X4X;X4X>X.XB.S Q i.+XOX&X9XuXuXF.6.9 ] 8.} D H 0.H.}.^.#X-X4X:X6XuXuXuXuXuXuXuX",
"uXuXuXuXuXuXyXeX6X4X8X8X4X:X#X%X_.Q.~ 8 q f.%X%X%XuXuXuXn H J y ' H I q._./.I.I.U.OX#X0XuXuXuXuXuXuX",
"uXuXuXuXuX8X<X@X+X#X<X$X=X5X5X4X=X=X X+.- 8 ) ^.-X$X#Xb.@.p o . _ { P.L.f.^ G.(.%X:X%X0XuXuXuXuXuXuX",
"uXuXuXuXwX6X/.2.r.H.h.H.}.J.|. X6XqX9X6X{.x t } i.^.}.}.^.] > o % l {  .` B.:X6X7X8X:X-X8XuXuXuXuXuX",
"uXuXuXuXqX:XH.E.A..XD.A.F.e.7.e.s.%X).).:X%X~.M 0 ,.#X^.H.r._ = + o M } n.~.:X$XK.-X:X-X<X8XyXuXuXuX",
"uXuXuX4X%XI.-.~.n.,.>.} Y #.&.} #.q.E.q.#X^.h.W.%.<.-X/.d.<.k 4 w % : O.@.9..XOX~.#X$X#X&X-X5XuXuXuX",
"uXuX8X XA.( j I F 9 e 5 ' ' X.| +.9.>.>.-.a.D.D.I.a./.H.a.;.h m i % = uXuXB.s.L./.L.OX&X+XM.k.2XuXuX",
"uXuX=Xd./ 6.` @.U j.N.B d & 2 M g w w ..>.>.F.y.W.u.L.i.t.%.a 4 7 + r uXuXuXP.L./.OX@XM.N ! m.XXuXuX",
"uXuXE.6.!.@XP.$Xp.M.1X!.' < s @.p , f ] =.F.A.y.G.u.f.#.T i 2 & $ 2 uXuXuXuXuXP.g.6.C l.m.>X].Q.-XuX",
"uXuXE.Y.!.<.<.f.T ` `.z._ M i I  .e u =.4.J.W.b.b. .f.z < * # uXuXuXuXuXuXuXuXR.I.N z !.N.j.k.R.uXuX",
"uXuXuXZ.w.0.q.1.X._ ^ %.X.&.O.o r M R ;.^.).Y.m.N f V.uXuXZ.uXuXuXuXuXuXuXuX^ ^ z.b j.T.! O.c.B.uXuX",
"uXuXuX_.p.*.0.q.>.F %.i.X.M.V - e ! U h q.v.k.v p uXuXuXuXuXuXuXuXuXuXuXuXuX@.G uXuXV x 3 1 m uXuXuX",
"uXuXuXuXuXz.c.C.{ k `  .c 1 + n ] h M 7 v b 5 > uXuXuXuXuXuXuXuXuXuXuXuXuXuXuXuXuXuXuXuXX uXuXuXuXuX",
"uXuXuXuXuXuXz O.p.N 5 6 O   a } #.+.U r uXuXuXuXuXuXuXuXuXuXuXuXuXuXuXuXuXuXuXuXuXuXuXuXuXuXuXuXuXuX",
"uXuXuXuXuXuXuXuXuX6 * 6   uXs g M b uXuXuXuXuXuXuXuXuXuXuXuXuXuXuXuXuXuXuXuXuXuXuXuXuXuXuXuXuXuXuXuX",
"uXuXuXuXuXuXuXuXuXuXuXuXuXuXuXuXuXuXuXuXuXuXuXuXuXuXuXuXuXuXuXuXuXuXuXuXuXuXuXuXuXuXuXuXuXuXuXuXuXuX",
"uXuXuXuXuXuXuXuXuXuXuXuXuXuXuXuXuXuXuXuXuXuXuXuXuXuXuXuXuXuXuXuXuXuXuXuXuXuXuXuXuXuXuXuXuXuXuXuXuXuX",
"uXuXuXuXuXuXuXuXuXuXuXuXuXuXuXuXuXuXuXuXuXuXuXuXuXuXuXuXuXuXuXuXuXuXuXuXuXuXuXuXuXuXuXuXuXuXuXuXuXuX",
"uXuXuXuXuXuXuXuXuXuXuXuXuXuXuXuXuXuXuXuXuXuXuXuXuXuXuXuXuXuXuXuXuXuXuXuXuXuXuXuXuXuXuXuXuXuXuXuXuXuX"
};
