/* XPM */
static char *_9895_2afb95a9dfd27849013d73300d27da93f0157f8c99fab59e523b45383f5ccbd6[] = {
/* columns rows colors chars-per-pixel */
"50 50 176 2 ",
"   c #010100",
".  c #090604",
"X  c #060802",
"o  c #0C0A04",
"O  c #120C07",
"+  c #140E09",
"@  c #1C0F0E",
"#  c #131306",
"$  c #181707",
"%  c #1A1907",
"&  c #16110B",
"*  c #1A130A",
"=  c #1D1C09",
"-  c #22160D",
";  c #231B0B",
":  c #2C1E0F",
">  c #271912",
",  c #301D14",
"<  c #311A19",
"1  c #25240B",
"2  c #2A250D",
"3  c #2C2B0D",
"4  c #302E0E",
"5  c #32310E",
"6  c #2E2112",
"7  c #3F2A16",
"8  c #342519",
"9  c #3E2D1E",
"0  c #373510",
"q  c #393711",
"w  c #3D3C12",
"e  c #462F18",
"r  c #482F18",
"t  c #422C16",
"y  c #45311A",
"u  c #4B321A",
"i  c #423B13",
"p  c #50341C",
"a  c #523A1C",
"s  c #472822",
"d  c #4B2B23",
"f  c #493622",
"g  c #4B3824",
"h  c #453421",
"j  c #543B24",
"k  c #5A3F24",
"l  c #553228",
"z  c #533C28",
"x  c #5C3F29",
"c  c #603C26",
"v  c #6A3E2F",
"b  c #434213",
"n  c #4B4616",
"m  c #4C4916",
"M  c #4F4218",
"N  c #504E17",
"B  c #5A411D",
"V  c #524F18",
"C  c #5A4A1C",
"Z  c #565319",
"A  c #59551A",
"S  c #5D5B1B",
"D  c #634E1F",
"F  c #625D1D",
"G  c #65611D",
"H  c #69651E",
"J  c #6D691F",
"K  c #644322",
"L  c #684422",
"P  c #6B4D24",
"I  c #734D27",
"U  c #774A2F",
"Y  c #7B4F2C",
"T  c #6C5C21",
"R  c #7B522A",
"E  c #755526",
"W  c #6C4C30",
"Q  c #6B4634",
"!  c #754A31",
"~  c #744534",
"^  c #6C5034",
"/  c #7F5732",
"(  c #765738",
")  c #7D5C3B",
"_  c #6F6B20",
"`  c #726E21",
"'  c #736622",
"]  c #767222",
"[  c #7A7523",
"{  c #7E7924",
"}  c #825A2D",
"|  c #885437",
" . c #86573F",
".. c #8B5638",
"X. c #9A5F3C",
"o. c #935C3C",
"O. c #8E612F",
"+. c #857E27",
"@. c #8E6030",
"#. c #84613F",
"$. c #906132",
"%. c #9B6836",
"&. c #966738",
"*. c #9E6C3A",
"=. c #9C613D",
"-. c #9E7433",
";. c #A26D37",
":. c #A46A3B",
">. c #AA6D3E",
",. c #AB733A",
"<. c #B0743C",
"1. c #B77A3E",
"2. c #946C46",
"3. c #9D7044",
"4. c #9E7248",
"5. c #A26D44",
"6. c #A27345",
"7. c #AD7242",
"8. c #A2734B",
"9. c #A7794E",
"0. c #B07242",
"q. c #B47A40",
"w. c #B07C48",
"e. c #BB7C42",
"r. c #AD7951",
"t. c #888327",
"y. c #8E8A29",
"u. c #908B2A",
"i. c #96902B",
"p. c #9C962D",
"a. c #9F9A2E",
"s. c #A19C2F",
"d. c #A68B32",
"f. c #B08639",
"g. c #A49830",
"h. c #B69D38",
"j. c #A6A030",
"k. c #AEA533",
"l. c #BE834B",
"z. c #BF8657",
"x. c #BE8A56",
"c. c #C88644",
"v. c #CB8846",
"b. c #C6894B",
"n. c #CB8B4B",
"m. c #C38448",
"M. c #D09946",
"N. c #D4914C",
"B. c #D8914E",
"V. c #C98F55",
"C. c #C18E5A",
"Z. c #CF9457",
"A. c #CF975F",
"S. c #D69556",
"D. c #DD9C57",
"F. c #D1955B",
"G. c #D69A5F",
"H. c #DB9C5E",
"J. c #E09C5A",
"K. c #D9A44A",
"L. c #D4BF40",
"P. c #DFBB47",
"I. c #D9B244",
"U. c #DFA352",
"Y. c #DDA15A",
"T. c #E6B54E",
"R. c #E1A753",
"E. c #CF9761",
"W. c #CF9861",
"Q. c #D59D64",
"!. c #DB9F63",
"~. c #DCA267",
"^. c #DDA469",
"/. c #E2A364",
"(. c #E0A669",
"). c None",
/* pixels */
").).).).).).).).).).).).).).).).).).).).).).).).).).).).).).).).).).).).).).).).).).).).).).).).).).",
").).).).).).).).).).).).).).).).).).).).).).).).).).).).).).).).).).).).).).).).).).).).).).).).).).",
").).).).).).).).).).).).).).).).).).).).).).).).).).).).).).).).).).).).).).).).).).).).).).).).).).",
").).).).).).).).).).).).).).).).).).).).).).).).).).).).).).).).).).).).).).).).).).).).).).).).).).",
").).).).).).).).).).).).).).).).).).).).).).).).).).).).).).).).).).).).).).).).).).).).).).).).).).",
").).).).).).).).).).).).).).).).).).).).).).).).).).).).).).).).).).).).).).).).).).).).).).).).).).",
").).).).).).).).).).).).).).).).).).).).).).).).).).).).).).).).).).).).).).).).).).).).).).).).).).",
").).).).).).).).).).).).).).).).).).).).).).).).).).).).).).).).).).).).).).).).).).).).).).).).).).",
").).).).).).).).).).).).).).).).).).).).).).).).).).).).).).).).).).).).).).).).).).).).).).).).).).",
").).).).).).).).).).).).).).).).).).).).).).).).).).).).).).).).).).).).).).).).).).).).).).).).).).",
").).).).).).).).).).).).).).).).).).).).).).).).).).).).).).).).).).).).).).).).).).).).).).).).).).",
").).).).).).).).).).).).).).).).).).).).).).).).).).).).).).).).).).).).).).).).).).).).).).).).).).",
").).).).).).).).).).).).).).).).).).).).).).).).).).).).).).).).).).).).).).).).).).).).).).).).).).",
").).).).).).).).).).).).).).).).).).).).).).).).).).).).).).).).).).).).).).).).).).).).).).).).).).",
").).).).).).).).).).).).).).).).).).).).).).).).).).).).).).).).).).).).).).).).).).).).).).).).).).",
").).).).).).).).).).).).).).).).).).).).).).).).).).).).).).).).).).).).).).).).).).).).).).).).).).",
").).).).).).).).).).).).).).).).).).).).).).).).).).).).).).).).).).).).).).).).).).).).).).).).).).",
").).).).).).).).).).).).).).).).).).).).).).).).).).).).).).).).).).).).).).).).).).).).).).).).).).",
").).).).).).).).).).).).).).).).).).).).).).).).).).).).).).).).).).).).).).).).).).).).).).).).).).",
").).).).).).).).).).).).).).).).).).).).).).                  ).).).).).).).).).).).).).).).).).).).",
").).).).).).).).).).).).).).).).).).).).).).. . o O o & + & + ).).).).).).).).).).).).).).).).).).).",
").).).).).).).).).).).).).).).).).).).).).O @ - , 9 u a j j f 8 ).).).).).).).).).).).).).).).).).).",
").).).).).).).).).).).).).).).).).).).  . @ < s x Y @.*.4.4.) f &   ).).).).).).).).).).).).).).).).",
").).).).).).).).).).).).).).).).).).).o + < d v | :.e.b.V.x.2.z *   ).).).).).).).).).).).).).).).).",
").).).).).).).).).).).).).).).).).).: 7 u c U ..X.>.7.7.8.2.( f *   ).).).).).).).).).).).).).).).).",
").).).).).).).).).).).).).).).).  & e I $.;.>.>.:.X...~ x f 9 , ).).).).).).).).).).).).).).).).).).",
").).).).).).).).).).).).).).).).X - a O.1.c.v.m.0.o.~ l 8 = + ).).).).).).).).).).).).).).).).).).).",
").).).).).).).).).).).).).).).3 w n D } %.1.n.n.l.5. .~ l 9 8 > ).).).).).).).).).).).).).).).).).).",
").).).).).).).).).).        = Z [ +.' C k / w.Z.F.z.r.4.2.2.Q 9 &         ).).).).).).).).).).).).).",
").).).).).).).).).X X       1 G s.k.[ i 6 x 4.E.~.Q.E.G.W.C.2.z *     X X ).).).).).).).).).).).).).",
").).).).).).).).).4 0 3 $ o = N +.p.[ M y W 9.Q.^.(.~.(./.G.9.k * o % 4 0 4 ).).).).).).).).).).).).",
").).).).).).).X 3 S [ J b $ o 2 n F T E } 3.x.~.^.^.~.~./.S.3.j * % b ` ] Z 1   ).).).).).).).).).).",
").).).).).).  X 4 ` j.s.G 1 X   # 2 a O.1.n.F.~.~.~.~.G.D.n.%.p * 3 H s.s.H 2   ).).).).).).).).).).",
").).).).).).1 4 m [ a.p.[ n 3 # . + e R ,.m.Z.G.!.H.G.Y.U.M.-.M * 1 S i.i.G 1   ).).).).).).).).).).",
").).).).X 3 A ` [ ] J ` [ { J b % o - r P &.l.S.J.D.D.R.T.I.d.V % # 5 A S n 1 ).).).).).).).).).).).",
").).).  o 5 [ j.a.H q w J s.s.H 2 X   o , K *.n.B.N.N.K.T.L.g.A % X o = 1 = ).).).).).).).).).).).).",
").).).  X 0 ] s.y.V % ; S i.p.H 2       O t I ;.<.,.,.f.h.k.y.Z $         ).).).).).).).).).).).).).",
").).).).).3 Z H A 5 # # q S F b %       . ; r K L L L D F H S w $ ).  ).).).).).).).).).).).).).).).",
").).).).).).2 1 1 # X X # 1 1 $ o         o * - : - - : 2 2 1 ; ).).).).).).).).).).).).).).).).).).",
").).).).).).                                                  ).).).).).).).).).).).).).).).).).).).",
").).).).).).).).                                            ).).).).).).).).).).).).).).).).).).).).",
").).).).).).).).).).).).).).).).).).).).).).).).).).).).).).).).).).).).).).).).).).).).).).).).).).",
").).).).).).).).).).).).).).).).).).).).).).).).).).).).).).).).).).).).).).).).).).).).).).).).).).",
").).).).).).).).).).).).).).).).).).).).).).).).).).).).).).).).).).).).).).).).).).).).).).).).).).",
").).).).).).).).).).).).).).).).).).).).).).).).).).).).).).).).).).).).).).).).).).).).).).).).).).",
").).).).).).).).).).).).).).).).).).).).).).).).).).).).).).).).).).).).).).).).).).).).).).).).).).",
").).).).).).).).).).).).).).).).).).).).).).).).).).).).).).).).).).).).).).).).).).).).).).).).).).",
").).).).).).).).).).).).).).).).).).).).).).).).).).).).).).).).).).).).).).).).).).).).).).).).).).",
").).).).).).).).).).).).).).).).).).).).).).).).).).).).).).).).).).).).).).).).).).).).).).).).).).",
").).).).).).).).).).).).).).).).).).).).).).).).).).).).).).).).).).).).).).).).).).).).).).).).).)."
};
