/* XPM */
static char *_3616_3c2d9e46e77a3e96e934f2f8c30c62fa3bf6ec522a8dd843f0f1ecb152bfd5ad[] = {
/* columns rows colors chars-per-pixel */
"50 50 119 2 ",
"   c black",
".  c #020202",
"X  c gray2",
"o  c #070707",
"O  c gray3",
"+  c gray5",
"@  c gray11",
"#  c #2A2A2A",
"$  c gray18",
"%  c #2F2F2F",
"&  c gray19",
"*  c #313131",
"=  c #323232",
"-  c gray20",
";  c #343434",
":  c #353535",
">  c gray21",
",  c #373737",
"<  c gray22",
"1  c #393939",
"2  c #3A3A3A",
"3  c gray23",
"4  c #3C3C3C",
"5  c gray24",
"6  c #3E3E3E",
"7  c #3F3F3F",
"8  c gray25",
"9  c #414141",
"0  c gray26",
"q  c #434343",
"w  c #444444",
"e  c gray27",
"r  c #464646",
"t  c gray28",
"y  c #484848",
"u  c #494949",
"i  c gray29",
"p  c #4B4B4B",
"a  c #4C4C4C",
"s  c gray30",
"d  c #4E4E4E",
"f  c gray31",
"g  c #505050",
"h  c #515151",
"j  c gray32",
"k  c #535353",
"l  c gray33",
"z  c #555555",
"x  c #565656",
"c  c gray34",
"v  c #585858",
"b  c gray35",
"n  c #5A5A5A",
"m  c #5B5B5B",
"M  c gray36",
"N  c #5D5D5D",
"B  c gray37",
"V  c #5F5F5F",
"C  c #606060",
"Z  c gray38",
"A  c #626262",
"S  c gray39",
"D  c #646464",
"F  c #656565",
"G  c gray40",
"H  c #676767",
"J  c #686868",
"K  c DimGray",
"L  c #6A6A6A",
"P  c gray42",
"I  c #6C6C6C",
"U  c #6D6D6D",
"Y  c gray43",
"T  c #6F6F6F",
"R  c gray44",
"E  c #717171",
"W  c #727272",
"Q  c gray45",
"!  c #747474",
"~  c #767676",
"^  c #777777",
"/  c gray47",
"(  c #797979",
")  c gray48",
"_  c #7B7B7B",
"`  c #7C7C7C",
"'  c gray49",
"]  c #7E7E7E",
"[  c gray50",
"{  c #808080",
"}  c #818181",
"|  c gray51",
" . c #868686",
".. c gray53",
"X. c #888888",
"o. c gray54",
"O. c #8B8B8B",
"+. c gray55",
"@. c #8D8D8D",
"#. c #8E8E8E",
"$. c gray56",
"%. c #909090",
"&. c gray57",
"*. c #929292",
"=. c #939393",
"-. c gray58",
";. c #959595",
":. c gray59",
">. c #979797",
",. c gray60",
"<. c #9A9A9A",
"1. c #9B9B9B",
"2. c gray61",
"3. c #9D9D9D",
"4. c gray62",
"5. c gray63",
"6. c #A4A4A4",
"7. c #A5A5A5",
"8. c #A7A7A7",
/* pixels */
"                                                                                                    ",
"    . X o O O O O O O O O O O O O O O O O O O O O O O O O O O O O O O O O O O O O O O O O o X .     ",
"  . + @ # % & & & & & & & & & & & & & & & & & & & & & & & & & & & & & & & & & & & & & & % # @ + .   ",
"  X @ 5 m H K H J J J J J J J J J J H H H H H H H H H H H H H H H H H H H H H H H H H K H m 5 @ X   ",
"  o # m ..>.>.*.&.&.&.&.&.&.&.&.&.&.&.&.*.*.*.*.*.*.*.*.*.*.*.*.*.*.*.*.*.*.*.*.&.*.*.>.>...m # o   ",
"  O % H >.6.2.$.O.O.+.+.+.+.O.O.O.+.@.#.$.%.%.$.$.$.$.%.%.$.$.$.$.$.$.$.$.$.$.$.#.$.=.4.7.>.H % O   ",
"  O & K >.2...R H G J J J J H H H K P Y E E E E E E E E E E R R T T T T T T T T Y T / @.4.>.K & O   ",
"  O & H *.$.R f 9 8 q q q q q q q e u s g h h g g g g g g g h h h h h h h h h h d f m / =.*.H & O   ",
"  O & J &.O.H 9 = & - ; > , , , , 1 4 8 q w w q q q q q q w r i s d f d d f d a r w f T $.*.H & O   ",
"  O & J &.O.G 8 & $ * - > 1 3 3 3 3 6 8 0 0 0 0 0 0 0 9 9 q u j n B V B B V B b d r d Y #.&.H & O   ",
"  O & J &.+.J q - * : < 4 8 0 q 0 0 q w w e e w w w w w q r f B P E E R R W R K b a h T $.*.H & O   ",
"  O & J &.+.J q ; - < 3 7 q e r e e e e e e e e e e e w q r j S W ( ) ( ( ) ( R B d h T $.*.H & O   ",
"  O & J &.+.J q > > 4 7 0 w r r r e e w w w w w w w w q q r j D ! _ _ ) ) ` ) W V f h T $.*.H & O   ",
"  O & J &.+.J q , 1 8 q w e e e e e e e e e e e e e e w q r j S W ( ) ( ( ) ( R B d h T $.*.H & O   ",
"  O & J &.O.H q , 3 0 e r e e e e r t u i p p p p p i y e t j S W ( ) / / ) / R B d h T $.*.H & O   ",
"  O & J &.O.H q , 3 q r r e e w e t a j x c c x c c x g i y h A W ( ) / / ) / R B d h T $.*.H & O   ",
"  O & J &.O.H q , 3 0 e r e e w w y h m A D S S D D A b d u h A W ( ) / / ) / R B d h T $.*.H & O   ",
"  O & J &.O.H q , 3 0 e e e e w w u z Z K I P L P I K V h i h A W ( ) / / ) / R B d h T $.*.H & O   ",
"  O & J &.O.H 0 > 2 0 e e e w q w i z S P Y U I U Y P C j i h A W ( ) / / ) / R B d h T $.*.H & O   ",
"  O & J &.O.H q > 2 0 e e e w q w u z A L U I I I U L V j i h A W ( ) / / ) / R B d h T $.*.H & O   ",
"  O & H &.+.K r 2 5 w t t t r e e u z Z L I I P I I K V h i h A W ( ) / / ) / R B d h T $.*.H & O   ",
"  O & H *.$.T f q e p s s s p y r i l Z L I I P I I K V h i h A W ( ) / / ) / R B d h T $.*.H & O   ",
"  O % H *.*.~ b d d j k l k h p t i l Z L I I P I I K V h i h A W ( ) / / ) / R B d h T $.*.H & O   ",
"  O % G *.-.` Z x z v v b v z d y i l Z L I I P I I K V h i h A W ( ) / / ) / R B d h T $.*.H & O   ",
"  O % G *.;.' S b v b n n n x f u i l Z L I I P I I K V h i h A W ( ) / / ) / R B d h T $.*.H & O   ",
"  O % G *.;.' S v c b n n n x f u i l Z L I I P I I K V h i h A W ( ) / / ) / R B d h T $.*.H & O   ",
"  O % G *.;.' A v c b b n b x f u i l Z L I I P I I K V h i h A W ( ) / / ) / R B d h T $.*.H & O   ",
"  O % G *.;.' A v c b b n b x f u i l Z L I I P I I K V h i h A W ( ) / / ) / R B d h T $.*.H & O   ",
"  O % G *.;.' A v c b b n b x f u i l Z L I I P I I K V h i h A W ( ) / / ) / R B d h T $.*.H & O   ",
"  O % G *.;.' A v c b b n b x f u i l Z L I I P I I K V h i h A W ( ) / / ) / R B d h T $.*.H & O   ",
"  O % G *.;.' A v c b b n b x f u i l Z L I I P I I K V h i h A W ( ) / / ) / R B d h T $.*.H & O   ",
"  O % G *.;.' A v c b b n b x f u i l Z L I I P I I K V h i h A W ( ) / / ) / R B d h T $.*.H & O   ",
"  O % G *.;.' A v c b b n b x f u i l Z L I I P I I K V h i h A W ( ) / / ) / R B d h T $.*.H & O   ",
"  O % G *.;.' A v c b b n b x f u i l Z L I I P I I K V h i h A W ( ) / / ) / R B d h T $.*.H & O   ",
"  O % G *.;.' A v c b b n b x f u i l Z L I I P I I K V h i h A W ( ) / / ) / R B d h T $.*.H & O   ",
"  O % G *.;.' A v c b b n b x f u i l Z L I I P I I K V h i h A W ( ) / / ) / R B d h T $.*.H & O   ",
"  O % G *.;.' A v c b b n b x f u i l Z L I I P I I K V h i h A W ( ) / / ) / R B d h T $.*.H & O   ",
"  O % G *.;.' A v c b b n b x f u i l Z L I I P I I K V h i h A W ( ) / / ) / R B d h T $.*.H & O   ",
"  O % G *.;.' A v c b b n b x f u i l Z L I I P I I K V h i h A W ( ) / / ) / R B d h T $.*.H & O   ",
"  O % G *.-.` A c x v b b b z d y u l Z L I P P I I K V h u g Z W ( ( / / ) / R N d h T $.*.H & O   ",
"  O % G *.-._ C z l x c c c k a r t h V J P L K L L H N f t d C R / / ^ ^ / ^ Y m p d U #.&.H & O   ",
"  O % G *.-.` Z x z c v v v l s t y k C K P P L P P J B g y f Z E / ( ^ / ( / T M s g Y #.*.H & O   ",
"  O % G =.>.| L Z C A A S A V b l z B K E Q Q W Q Q R H m z m L / ] [ ] ] [ ] ~ G b m ~ *.*.H & O   ",
"  O & J >.5.=.| ` _ ` ' ' ' _ ~ Q ! ) }  .X.....X.X. .{ / ! / | O.$.%.$.$.%.$.o.[ ~ / +.4.>.K & O   ",
"  O % H >.8.5.>.-.-.-.;.;.;.-.*.%.&.=.>.,.,.,.,.,.,.,.:.=.&.*.>.1.3.3.2.2.3.2.<.:.*.=.4.7.>.H % O   ",
"  o # m ..>.>.=.*.*.*.*.*.*.*.*.*.*.*.*.=.=.=.=.=.=.=.*.*.*.*.*.=.=.=.=.=.=.=.=.*.*.*.>.>...m # o   ",
"  X @ 5 m H J G G G G G G G G H H H H G G G G G G G G G H H H G F F F F F F F G G H H K H m 5 @ X   ",
"  . + @ # % & % % % % % % % % % & & % % % % % % % % % % % & % % % % % % % % % % % % & & % # @ + .   ",
"    . X o O O O O O O O O O O O O O O O O O O O O O O O O O O O O O O O O O O O O O O O O o X .     ",
"                                                                                                    "
};
