/* XPM */
static char *_8009_e35424f3351b0431f0e622ecf2955282315fa94e79231b33023701a753670eaa[] = {
/* columns rows colors chars-per-pixel */
"50 50 136 2 ",
"   c #57403C",
".  c #56403D",
"X  c #57403D",
"o  c #56403E",
"O  c #57403E",
"+  c #5C423F",
"@  c #4D3E46",
"#  c #4E3E46",
"$  c #4E3F46",
"%  c #4F3F46",
"&  c #4F3F47",
"*  c #533F40",
"=  c #523F43",
"-  c #544041",
";  c #554042",
":  c #574142",
">  c #514045",
",  c #524044",
"<  c #534044",
"1  c #524045",
"2  c #514046",
"3  c #504047",
"4  c #514047",
"5  c #524046",
"6  c #524047",
"7  c #534147",
"8  c #544044",
"9  c #544144",
"0  c #544145",
"q  c #554247",
"w  c #564246",
"e  c #5A4240",
"r  c #5B4240",
"t  c #5B4340",
"y  c #5A4241",
"u  c #584142",
"i  c #5F4440",
"p  c #584244",
"a  c #594344",
"s  c #5D4444",
"d  c #5D4445",
"f  c #5F4545",
"g  c #504048",
"h  c #514048",
"j  c #544148",
"k  c #554248",
"l  c #584348",
"z  c #5A4448",
"x  c #5B4548",
"c  c #5B454A",
"v  c #5D4549",
"b  c #634642",
"n  c #604645",
"m  c #654845",
"M  c #664845",
"N  c #684945",
"B  c #694945",
"V  c #6A4A45",
"C  c #6C4B46",
"Z  c #6C4B47",
"A  c #60474B",
"S  c #634849",
"D  c #61484B",
"F  c #66494A",
"G  c #62484C",
"H  c #63494C",
"J  c #674B4D",
"K  c #6A4A48",
"L  c #6B4B49",
"P  c #684A4A",
"I  c #694B4A",
"U  c #6C4C4B",
"Y  c #684B4C",
"T  c #6F4E4C",
"R  c #714E49",
"E  c #714E4B",
"W  c #734F4A",
"Q  c #724F4B",
"!  c #744F4A",
"~  c #734F4C",
"^  c #75504B",
"/  c #76504B",
"(  c #72504F",
")  c #74504C",
"_  c #75504C",
"`  c #76504C",
"'  c #76514C",
"]  c #77514C",
"[  c #76514D",
"{  c #77514D",
"}  c #78514C",
"|  c #78524C",
" . c #79524D",
".. c #7A524D",
"X. c #7A534D",
"o. c #78524E",
"O. c #7A534E",
"+. c #7B534E",
"@. c #7D544F",
"#. c #725050",
"$. c #735050",
"%. c #775250",
"&. c #765251",
"*. c #775251",
"=. c #775351",
"-. c #775352",
";. c #785351",
":. c #7E5550",
">. c #7F5550",
",. c #7F5650",
"<. c #805650",
"1. c #815751",
"2. c #825751",
"3. c #835751",
"4. c #825752",
"5. c #835752",
"6. c #835852",
"7. c #825853",
"8. c #845852",
"9. c #845853",
"0. c #855953",
"q. c #825854",
"w. c #855954",
"e. c #875A54",
"r. c #875A55",
"t. c #885A54",
"y. c #885A55",
"u. c #895B55",
"i. c #8A5B55",
"p. c #885B56",
"a. c #895B56",
"s. c #8D5D56",
"d. c #8C5C57",
"f. c #8D5D57",
"g. c #8E5E57",
"h. c #8E5E58",
/* pixels */
"@ 4 z P ~ } | ] ] ] ] ] ] ] ] ] ] ] ] ] ] ] ] ] ] ] ] ] ] ] ] ] ] ] ] ] ] ] ] ] | } Q F l % # & 4 4 ",
"4 q v I ) } } ] ] ] ] ] ] ] ] ] ] ] ] ] ] ] ] ] ] ] ] ] ] ] ] ] ] ] ] ] ] ] ] ] | } ~ I v k 6 4 4 4 ",
"z v S U _ } } ] ] ] ] ] ] ] ] ] ] ] ] ] ] ] ] ] ] ] ] ] ] ] ] ] ] ] ] ] ] ] ] ] } ] _ T Y D c k 6 3 ",
"P I U E ` ] ] ] ] ] ] ] ] ] ] ] ] ] ] ] ] ] ] ] ] ] ] ] ] ] ] ] ] ] ] ] ] ] ] ] ] ] { o.%.#.J c 7 & ",
"~ ) _ ` ] ] ] ] ] ] ] ] ] ] ] ] ] ] ] ] ] ] ] ] ] ] ] ] ] ] ] ] ] ] ] ] ] ] ] ] ' ]  .,.w.q.$.D j $ ",
"} } } ] ] ] ] ] ] ] ] ] ] ] ] ] ] ] ] ] ] ] ] ] ] ] ] ] ] ] ] ] ] ] ] ] ] ] ] ] ' ] X.3.i.p.=.H j $ ",
"| } } ] ] ] ] ] ] ] ] ] ] ] ] ] ] ] ] ] ] ] ] ] ] ] ] ] ] ] ] ] ] ] ] ] ] ] ] ] ' ] X.3.i.a.;.H j $ ",
"] ] ] ] ] ] ] ] ] ] ] ] ] ] ] ] ] ] ] ] ] ] ] ] ] ] ] ] ] ] ] ] ] ] ] ] ] ] ] ] ' ] ..2.u.r.*.G j $ ",
"] ] ] ] ] ] ] ] ] ] ] ] ] ] ] ] ] ] ] ] ] ] ] ] ] ] ] ] ] ] ] ] ] ] ] ] ] ] ] ] ' ] ..2.u.r.&.G j $ ",
"] ] ] ] ] ] ] ] ] ] ] ] ] ] ] ] ] ] ] ] ] ] ] ] ] ] ] ] ] ] ] ] ] ] ] ] ] ] ] ] ' ] ..2.u.r.&.G j $ ",
"] ] ] ] ] ] ] ] ] ] ] ] ] ] ] ] ] ] ] ] ] ] ] ] ] ] ] ] ] ] ] ] ] ] ] ] ] ] ] ] ' ] ..2.u.r.&.G j $ ",
"] ] ] ] ] ] ] ] ] ] ] ] ] ] ] ] ] ] ] ] ] ] ] ] ] ] ] ] ] ] ] ] ] ] ] ] ] ] ] ] ' ] ..2.u.r.&.G j $ ",
"] ] ] ] ] ] ] ] ] ] ] ] ] ] ] ] ] ] ] ] ] ] ] ] ] ] ] ] ] ] ] ] ] ] ] ] ] ] ] ] ' ] ..2.u.r.&.G j $ ",
"] ] ] ] ] ] ] ] ] ] ] ] ] ] ] ] ] ] ] ] ] ] ] ] ] ] ] ] ] ] ] ] ] ] ] ] ] ] ] ] ' ] ..2.u.r.&.G j $ ",
"] ] ] ] ] ] ] ] ] ] ] ] ] ] ] ] ] ] ] ] ] ] ] ] ] ] ] ] ] ] ] ] ] ] ] ] ] ] ] ] ' ] ..2.u.r.&.G j $ ",
"] ] ] ] ] ] ] ] ] ] ] ] ] ] ] ] ] ] ] ] ] ] ] ] ] ] ] ] ] ] ] ] ] ] ] ] ] ] ] ] ' ] ..2.u.r.&.G j $ ",
"] ] ] ] ] ] ] ] ] ] ] ] ] ] ] ] ] ] ] ] ] ] ] ] ] ] ] ] ] ] ] ] ] ] ] ] ] ] ] ] ' ] ..2.u.r.&.G j $ ",
"] ] ] ] ] ] ] ] ] ] ] ] ] ] ] ] ] ] ] ] ] ] ] ] ] ] ] ] ] ] ] ] ] ] ] ] ] ] ] ] ' ] ..2.u.r.&.G j $ ",
"] ] ] ] ] ] ] ] ] ] ] ] ] ] ] ] ] ] ] ] ] ] ] ] ] ] ] ] ] ] ] ] ] ] ] ] ] ] ] ] ' ] ..2.u.r.&.G j $ ",
"] ] ] ] ] ] ] ] ] ] ] ] ] ] ] ] ] ] ] ] ] ] ] ] ] ] ] ] ] ] ] ] ] ] ] ] ] ] ] ] ' ] ..2.u.r.&.G j $ ",
"] ] ] ] ] ] ] ] ] ] ] ] ] ] ] ] ] ] ] ] ] ] ] ] ] ] ] ] ] ] ] ] ] ] ] ] ] ] ] ] ' ] ..2.u.r.&.G j $ ",
"] ] ] ] ] ] ] ] ] ] ] ] ] ] ] ] ] ] ] ] ] ] ] ] ] ] ] ] ] ] ] ] ] ] ] ] ] ] ] ] ' ] ..2.u.r.&.G j $ ",
"] ] ] ] ] ] ] ] ] ] ] ] ] ] ] ] ] ] ] ] ] ] ] ] ] ] ] ] ] ] ] ] ] ] ] ] ] ] ] ] ' ] ..2.u.r.&.G j $ ",
"] ] ] ] ] ] ] ] ] ] ] ] ] ] ] ] ] ] ] ] ] ] ] ] ] ] ] ] ] ] ] ] ] ] ] ] ] ] ] ] ' ] ..2.u.r.&.G j $ ",
"] ] ] ] ] ] ] ] ] ] ] ] ] ] ] ] ] ] ] ] ] ] ] ] ] ] ] ] ] ] ] ] ] ] ] ] ] ] ] ] ' ] ..2.u.r.&.G j $ ",
"] ] ] ] ] ] ] ] ] ] ] ] ] ] ] ] ] ] ] ] ] ] ] ] ] ] ] ] ] ] ] ] ] ] ] ] ] ] ] ] ' ] ..2.u.r.&.G j $ ",
"] ] ] ] ] ] ] ] ] ] ] ] ] ] ] ] ] ] ] ] ] ] ] ] ] ] ] ] ] ] ] ] ] ] ] ] ] ] ] ] ' ] ..2.u.r.&.G j $ ",
"] ] ] ] ] ] ] ] ] ] ] ] ] ] ] ] ] ] ] ] ] ] ] ] ] ] ] ] ] ] ] ] ] ] ] ] ] ] ] ] ' ] ..2.u.r.&.G j $ ",
"] ] ] ] ] ] ] ] ] ] ] ] ] ] ] ] ] ] ] ] ] ] ] ] ] ] ] ] ] ] ] ] ] ] ] ] ] ] ] ] ' ] ..2.u.r.&.G j $ ",
"] ] ] ] ] ] ] ] ] ] ] ] ] ] ] ] ] ] ] ] ] ] ] ] ] ] ] ] ] ] ] ] ] ] ] ] ] ] ] ] ' ] ..2.u.r.&.G j $ ",
"] ] ] ] ] ] ] ] ] ] ] ] ] ] ] ] ] ] ] ] ] ] ] ] ] ] ] ] ] ] ] ] ] ] ] ] ] ] ] ] ' ] ..2.u.r.&.G j $ ",
"] ] ] ] ] ] ] ] ] ] ] ] ] ] ] ] ] ] ] ] ] ] ] ] ] ] ] ] ] ] ] ] ] ] ] ] ] ] ] ] ' ] ..2.u.r.&.G j $ ",
"] ] ] ] ] ] ] ] ] ] ] ] ] ] ] ] ] ] ] ] ] ] ] ] ] ] ] ] ] ] ] ] ] ] ] ] ] ] ] ] ' ] ..2.u.r.&.G j $ ",
"] ] ] ] ] ] ] ] ] ] ] ] ] ] ] ] ] ] ] ] ] ] ] ] ] ] ] ] ] ] ] ] ] ] ] ] ] ] ] ] ' ] ..2.u.r.&.G j $ ",
"] ] ] ] ] ] ] ] ] ] ] ] ] ] ] ] ] ] ] ] ] ] ] ] ] ] ] ] ] ] ] ] ] ] ] ] ] ] ] ] ' ] ..2.u.r.&.G j $ ",
"] ] ] ] ] ] ] ] ] ] ] ] ] ] ] ] ] ] ] ] ] ] ] ] ] ] ] ] ] ] ] ] ] ] ] ] ] ] ] ] ' ] ..2.u.r.&.G j $ ",
"] ] ] ] ] ] ] ] ] ] ] ] ] ] ] ] ] ] ] ] ] ] ] ] ] ] ] ] ] ] ] ] ] ] ] ] ] ] ] ] ' ' ..2.u.r.*.G j $ ",
"] ] ] ] ] ] ] ] ] ] ] ] ] ] ] ] ] ] ] ] ] ] ] ] ] ] ] ] ] ] ] ] ] ] ] ] ] ] ] ] / /  .1.u.r.*.G j $ ",
"] ] ] ] ] ] ] ] ] ] ] ] ] ] ] ] ] ] ] ] ] ] ] ] ] ] ] ] ] ] ] ] ] ] ] ] ] ] ] ] ' ' ..2.u.r.*.G j $ ",
"] ] ] ] ] ] ] ] ] ] ] ] ] ] ] ] ] ] ] ] ] ] ] ] ] ] ] ] ] ] ] ] ] ] ] ] ] ] ] ] }  .@.8.i.r.*.G j $ ",
"| } } ] ' ' ' ' ' ' ' ' ' ' ' ' ' ' ' ' ' ' ' ' ' ' ' ' ' ' ' ' ' ' ' ' ' / ' } +.:.5.u.f.a.-.H j $ ",
"} } ] ] ] ] ] ] ] ] ] ] ] ] ] ] ] ] ] ] ] ] ] ] ] ] ] ] ] ] ] ] ] ] ] ] ' / '  .:.9.u.f.g.p.*.G j $ ",
"W ! ^ ]  .X.X............................................................. ...@.5.u.d.s.i.7.( A j $ ",
"V C R  .<.4.4.2.2.2.2.2.2.2.2.2.2.2.2.2.2.2.2.2.2.2.2.2.2.2.2.2.2.2.2.2.2.1.2.8.u.f.f.e.>._ P x 7 & ",
"i b Z  .0.i.i.u.u.u.u.u.u.u.u.u.u.u.u.u.u.u.u.u.u.u.u.u.u.u.u.u.u.u.u.u.u.u.u.i.f.h.i.>.R m d w 6 3 ",
"O t M ' 6.u.u.t.t.t.t.t.t.t.t.t.t.t.t.t.t.t.t.t.t.t.t.t.t.t.t.t.t.t.t.t.t.t.t.y.u.u.6._ M y ; < 4 4 ",
"* : f L [ +.+.O.O.O.O.O.O.O.O.O.O.O.O.O.O.O.O.O.O.O.O.O.O.O.O.O.O.O.O.O.O.O.O.O.O.O._ K s ; = > 4 4 ",
", 8 a n M B B N N N N N N N N N N N N N N N N N N N N N N N N N N N N N N N N N B N m f p < > 2 4 4 ",
"4 5 9 u r + + + + + + + + + + + + + + + + + + + + + + + + + + + + + + + + + + + + + e : 0 5 4 4 4 4 ",
"g 4 , - o     . . . . . . . . . . . . . . . . . . . . . . . . . . . . . . . . .   X o - 1 4 h 4 4 4 "
};
