/* XPM */
static char *_2712_0130d7e649f67fcea0ae8db9d6722adb341c0c19368b1fa228a26578a320b88a[] = {
/* columns rows colors chars-per-pixel */
"50 50 95 2 ",
"   c #030206",
".  c #070807",
"X  c #060608",
"o  c #0B070A",
"O  c #070809",
"+  c #0A0B0A",
"@  c #130D0D",
"#  c #180F0E",
"$  c #0E120C",
"%  c #12150E",
"&  c #18100F",
"*  c #13190F",
"=  c #1D1310",
"-  c #151C10",
";  c #1B1F12",
":  c #221612",
">  c #251B14",
",  c #2C1B16",
"<  c #321F18",
"1  c #1B2413",
"2  c #1F2915",
"3  c #242516",
"4  c #212C16",
"5  c #222F18",
"6  c #352119",
"7  c #3C251C",
"8  c #372D1C",
"9  c #3F2C1E",
"0  c #233017",
"q  c #25331A",
"w  c #28371B",
"e  c #2B3C1C",
"r  c #33321C",
"t  c #363A1F",
"y  c #3F3B21",
"u  c #41271D",
"i  c #43291F",
"p  c #472C20",
"a  c #4B2D21",
"s  c #4C3523",
"d  c #483E24",
"f  c #553325",
"g  c #5A3526",
"h  c #513E27",
"j  c #5D3728",
"k  c #5E3A29",
"l  c #663D2C",
"z  c #693E2C",
"x  c #2F411E",
"c  c #334520",
"v  c #3F4524",
"b  c #364B22",
"n  c #394F24",
"m  c #375123",
"M  c #3B5225",
"N  c #3F5827",
"B  c #3E5728",
"V  c #3F5A28",
"C  c #444C26",
"Z  c #494C27",
"A  c #4E4D29",
"S  c #554629",
"D  c #5C452A",
"F  c #514C29",
"G  c #5D4D2C",
"H  c #445227",
"J  c #465728",
"K  c #495228",
"L  c #425B29",
"P  c #4B5B2C",
"I  c #5C522E",
"U  c #565B2E",
"Y  c #5B5A2F",
"T  c #5F5B31",
"R  c #64422C",
"E  c #6C422E",
"W  c #624C2E",
"Q  c #70432F",
"!  c #60542F",
"~  c #6C4C30",
"^  c #724531",
"/  c #744D33",
"(  c #7D4B35",
")  c #6D5232",
"_  c #625D32",
"`  c #725334",
"'  c #46622C",
"]  c #4A652E",
"[  c #46692D",
"{  c #4B692F",
"}  c #50622F",
"|  c #4D6C30",
" . c #516630",
".. c #814D36",
"X. c None",
/* pixels */
"X.X.X.X.X.X.X.X.X.X.X.X.X.X.X.X.X.X.X.X.X.X.X.X.X.X.X.X.X.X.X.X.X.X.X.X.X.X.X.X.X.X.X.X.X.X.X.X.X.X.",
"X.X.X.X.X.X.X.X.X.X.X.X.X.X.X.X.X.X.X.X.X.X.X.X.X.X.X.X.X.X.X.X.X.X.X.X.X.X.X.X.X.X.X.X.X.X.X.X.X.X.",
"X.X.X.X.X.X.X.X.X.X.X.X.X.X.X.X.X.X.X.X.X.X.X.X.X.X.X.X.X.X.X.X.X.X.X.X.X.X.X.X.X.X.X.X.X.X.X.X.X.X.",
"X.X.X.X.X.X.X.X.X.X.X.X.X.X.X.X.X.X.X.X.                        X X.X.X.X.X.X.X.X.X.X.X.X.X.X.X.X.X.",
"X.X.X.X.X.X.X.X.X.X.X.X.X.X.X.X.X.X.X.o o O o o o o o o o o o O + o X.X.X.X.X.X.X.X.X.X.X.X.X.X.X.X.",
"X.X.X.X.X.X.X.X.X.X.X.X.X.X.X.X.X.X.@ = = = : : > : : : : : : = = = & X.X.X.X.X.X.X.X.X.X.X.X.X.X.X.",
"X.X.X.X.X.X.X.X.X.X.X.X.X.X.X.X.X.o = 6 9 p p p p a p a s p s i 7 < : + X.X.X.X.X.X.X.X.X.X.X.X.X.X.",
"X.X.X.X.X.X.X.X.X.X.X.X.X.X.X.X.O @ , p j l E E ^ ^ ^ ^ ^ E E l j a < & X X.X.X.X.X.X.X.X.X.X.X.X.X.",
"X.X.X.X.X.X.X.X.X.X.X.X.X.X.X.@ # : 7 g E / ( ................( z j p : # @ X.X.X.X.X.X.X.X.X.X.X.X.",
"X.X.X.X.X.X.X.X.O           o : < u f E ^ ( ................( ( ( z f p < = +           X X.X.X.X.X.",
"X.X.X.X.X.X.  O O O O X   O @ , i l E Q ( ..( ....( ..( ..( ( ( ( ^ z l a < @ X   X X X X X X X.X.X.",
"X.X.X.X.X.X.O O O + $ $ % * ; 8 h R / ^ ( ..( ( ( ..( ..( ..( ....( ^ z j p > * $ % % + + X X X.X.X.",
"X.X.X.X.X.X.  O + - 1 0 0 w e C F ! ) / ( ..........................( ( R h y w q 2 2 - + O O X.X.X.",
"X.X.X.X.X.X.  O $ 1 e c n B L L ] Y _ ` ( ( ( ..( ..( ( ( ....( ( ( ( ( / I K M m b e 2 % X   X.X.X.",
"X.X.X.X.X.X.X.O % 2 e b B ' ' [ {  ._ ` ( ( ( / / / / / / / ` / / / / / ) T  .' V m x 2 * X   X.X.X.",
"X.X.X.X.X.X.X.X.$ 1 5 e b B ' [ {  ._ ` ( / W W G G ! G G W I W G W W I I U ] L b e 2 1 % + X.X.X.X.",
"X.X.X.X.X.X.X.X.X.+ % ; q b V ' [  ._ ` ( ~ F K K H K K K Z K A K K K Z K J V n e 1 - + X.X.X.X.X.X.",
"X.X.X.X.X.X.X.X.X.  O % 4 c B P ] } _ ` / W A H M M M M M M M M M B n n M m n x 2 % O X X.X.X.X.X.X.",
"X.X.X.X.X.X.X.X.X.    % 3 d A P ] } } ` E W A M m m m m m m m m m m M M n x w 2 ; $   X.X.X.X.X.X.X.",
"X.X.X.X.X.X.X.X.X.  X @ , s D U } } Y ~ E D Z n m m m M M m m n m m M M c q 1 * $ X.X.X.X.X.X.X.X.X.",
"X.X.X.X.X.X.X.X.X.  O @ < g R I } } U W R S Z M m b b n n m M M M M M b e 2 % X   X.X.X.X.X.X.X.X.X.",
"X.X.X.X.X.X.X.X.X.  O & < g R I P P J F S A J B b x w e b H L ' B M c w 2 % + X   X.X.X.X.X.X.X.X.X.",
"X.X.X.X.X.X.X.X.X.  O @ 6 g D G J H B C C J P L b 0 1 4 c L ' [ ' M e 1 % + X X   X.X.X.X.X.X.X.X.X.",
"X.X.X.X.X.X.X.X.X.  O # < f R S Z M M n M J ] ' b 1 * 1 c ' | | ] B e - + O X X X X.X.X.X.X.X.X.X.X.",
"X.X.X.X.X.X.X.X.X.  O & 6 g R R S C C n B ' ' ' M e 2 w m ' | | { L c 5 - % + X X X.X.X.X.X.X.X.X.X.",
"X.X.X.X.X.X.X.X.X.  O @ 6 g l E D S Z C m V ' ] L B b M L ] | | { ' L b w 1 $ X   X.X.X.X.X.X.X.X.X.",
"X.X.X.X.X.X.X.X.X.  o & 6 f l z l l S C m L ' ] [ [ ] ] ' ] | | { { { ' M q % X   X.X.X.X.X.X.X.X.X.",
"X.X.X.X.X.X.X.X.X.X.X # , i a j l R S C B V ' | { { |  .| | ] | { | | | L w % X   X.X.X.X.X.X.X.X.X.",
"X.X.X.X.X.X.X.X.X.X.X.X.= : < i g R D Z M L ' [ | | | | | | ] | { | | | V w %     X.X.X.X.X.X.X.X.X.",
"X.X.X.X.X.X.X.X.X.X.X.X.o @ : < f j S C M V ' ] [ | [ ] | [ | ] | | | | B q - O   X.X.X.X.X.X.X.X.X.",
"X.X.X.X.X.X.X.X.X.X.X.X.X.  @ , u s d C M L ' { | | | | | | | | | | | { B w * O   X.X.X.X.X.X.X.X.X.",
"X.X.X.X.X.X.X.X.X.X.X.X.X.X.X.& > 6 r c n L ] { | | | | | | | | | | | | B w % X   X.X.X.X.X.X.X.X.X.",
"X.X.X.X.X.X.X.X.X.X.X.X.X.X.X.o o * 3 x M L ' { { ' { { { [ { | ] | | ] B q * X   X.X.X.X.X.X.X.X.X.",
"X.X.X.X.X.X.X.X.X.X.X.X.X.X.X.X.  $ 1 e M L ' ' ' L M M m B M M M L L ' B q % X   X.X.X.X.X.X.X.X.X.",
"X.X.X.X.X.X.X.X.X.X.X.X.X.X.X.X.  + 1 x m L L L M x w 0 q q 0 0 5 e n L M q % X   X.X.X.X.X.X.X.X.X.",
"X.X.X.X.X.X.X.X.X.X.X.X.X.X.X.X.X + 1 e n M N m e 4 * % $ % $ % % 1 e b x 0 $ X   X.X.X.X.X.X.X.X.X.",
"X.X.X.X.X.X.X.X.X.X.X.X.X.X.X.X.  + 1 x m M b x 0 * .     X . + $ - 0 e e 1 $ X   X.X.X.X.X.X.X.X.X.",
"X.X.X.X.X.X.X.X.X.X.X.X.X.X.X.  X $ 1 x n c w 2 - $       X + * 1 4 4 4 1 - + X X.X.X.X.X.X.X.X.X.X.",
"X.X.X.X.X.X.X.X.X.X.X.X.X.X.X.    + 1 x b e 2 % + .       X % 4 e e 4 - $ . X X.X.X.X.X.X.X.X.X.X.X.",
"X.X.X.X.X.X.X.X.X.X.X.X.X.X.X.  X $ 1 w e 0 * .     X.    X % 4 e e 1 + X   X.X.X.X.X.X.X.X.X.X.X.X.",
"X.X.X.X.X.X.X.X.X.X.X.X.X.X.X.  X . % 2 2 1 $ X   X.X.  X . $ - 4 1 * .     X.X.X.X.X.X.X.X.X.X.X.X.",
"X.X.X.X.X.X.X.X.X.X.X.X.X.X.X.  X X + $ $ $ .   X.X.X.    X o $ % % $ X X.X.X.X.X.X.X.X.X.X.X.X.X.X.",
"X.X.X.X.X.X.X.X.X.X.X.X.X.X.X.X X X X X . X   X.X.X.X.X X X X X . . X X.X.X.X.X.X.X.X.X.X.X.X.X.X.X.",
"X.X.X.X.X.X.X.X.X.X.X.X.X.X.X.    X         X.X.X.X.X.X.    X         X.X.X.X.X.X.X.X.X.X.X.X.X.X.X.",
"X.X.X.X.X.X.X.X.X.X.X.X.X.X.X.X.X.      X.X.X.X.X.X.X.X.X.        X.X.X.X.X.X.X.X.X.X.X.X.X.X.X.X.X.",
"X.X.X.X.X.X.X.X.X.X.X.X.X.X.X.X.X.X.X.X.X.X.X.X.X.X.X.X.X.X.X.X.X.X.X.X.X.X.X.X.X.X.X.X.X.X.X.X.X.X.",
"X.X.X.X.X.X.X.X.X.X.X.X.X.X.X.X.X.X.X.X.X.X.X.X.X.X.X.X.X.X.X.X.X.X.X.X.X.X.X.X.X.X.X.X.X.X.X.X.X.X.",
"X.X.X.X.X.X.X.X.X.X.X.X.X.X.X.X.X.X.X.X.X.X.X.X.X.X.X.X.X.X.X.X.X.X.X.X.X.X.X.X.X.X.X.X.X.X.X.X.X.X.",
"X.X.X.X.X.X.X.X.X.X.X.X.X.X.X.X.X.X.X.X.X.X.X.X.X.X.X.X.X.X.X.X.X.X.X.X.X.X.X.X.X.X.X.X.X.X.X.X.X.X.",
"X.X.X.X.X.X.X.X.X.X.X.X.X.X.X.X.X.X.X.X.X.X.X.X.X.X.X.X.X.X.X.X.X.X.X.X.X.X.X.X.X.X.X.X.X.X.X.X.X.X."
};
