/* XPM */
static char *_898_698fd67612493e03d9ddb07dda47e44c96ff79ff2314160b6537793b29e30748[] = {
/* columns rows colors chars-per-pixel */
"50 50 199 2 ",
"   c #020203",
".  c #0C0506",
"X  c #060608",
"o  c #0B0709",
"O  c #0B090B",
"+  c #140A0C",
"@  c #1A0B0D",
"#  c #1C0608",
"$  c #0F0E10",
"%  c #120F11",
"&  c #131315",
"*  c #171619",
"=  c #1A1619",
"-  c #1A1A1D",
";  c #181417",
":  c #260D0F",
">  c #2B0D0E",
",  c #2F0F10",
"<  c #241113",
"1  c #291618",
"2  c #341113",
"3  c #3A1213",
"4  c #391A1C",
"5  c #3B0F10",
"6  c #1D1E21",
"7  c #1F2125",
"8  c #212325",
"9  c #242629",
"0  c #29272B",
"q  c #25292D",
"w  c #2B2B2E",
"e  c #292124",
"r  c #37282A",
"t  c #2E2E33",
"y  c #333335",
"u  c #35363B",
"i  c #39373C",
"p  c #3A3A3E",
"a  c #322F33",
"s  c #421415",
"d  c #451A1C",
"f  c #531A1B",
"g  c #5C1A1B",
"h  c #671D1D",
"j  c #441E20",
"k  c #482124",
"l  c #552326",
"z  c #463538",
"x  c #482E33",
"c  c #6C2223",
"v  c #732122",
"b  c #7D2728",
"n  c #753436",
"m  c #68382F",
"M  c #714935",
"N  c #3D3D42",
"B  c #423E43",
"V  c #693F42",
"C  c #444346",
"Z  c #45454A",
"A  c #4B4A4D",
"S  c #47464C",
"D  c #464E53",
"F  c #4B4E53",
"G  c #4A5156",
"H  c #4C555B",
"J  c #49545A",
"K  c #5A5B5E",
"L  c #57555C",
"P  c #55494F",
"I  c #6C4448",
"U  c #67595E",
"Y  c #714C51",
"T  c #555E64",
"R  c #5D5B61",
"E  c #615E65",
"W  c #596268",
"Q  c #616266",
"!  c #64626A",
"~  c #69646B",
"^  c #6A6B6E",
"/  c #766569",
"(  c #6C6D71",
")  c #676C73",
"_  c #716D75",
"`  c #786C75",
"'  c #72757D",
"]  c #79757D",
"[  c #7A797A",
"{  c #842727",
"}  c #8A2828",
"|  c #852829",
" . c #932B2C",
".. c #9A2D2D",
"X. c #943638",
"o. c #813538",
"O. c #A33031",
"+. c #AD3232",
"@. c #A93A3B",
"#. c #B33434",
"$. c #A12F2F",
"%. c #A45529",
"&. c #B64C3E",
"*. c #AE5E3D",
"=. c #C35B36",
"-. c #C9652D",
";. c #9D3F43",
":. c #A43F41",
">. c #9D4244",
",. c #9C494C",
"<. c #994E52",
"1. c #92585D",
"2. c #8A5256",
"3. c #A74847",
"4. c #B04143",
"5. c #AF5B50",
"6. c #8B6353",
"7. c #BB6649",
"8. c #8F5B61",
"9. c #9A5C61",
"0. c #935E60",
"q. c #8D6268",
"w. c #946569",
"e. c #89747C",
"r. c #95757C",
"t. c #996E74",
"y. c #A46A63",
"u. c #A77663",
"i. c #A87E71",
"p. c #C36E4C",
"a. c #CD7A79",
"s. c #D1797A",
"d. c #C6726A",
"f. c #7D7B83",
"g. c #747D84",
"h. c #837B84",
"j. c #8B7B81",
"k. c #837F88",
"l. c #907F86",
"z. c #79848C",
"x. c #7B8992",
"c. c #7A8790",
"v. c #83848C",
"b. c #8B858E",
"n. c #878382",
"m. c #828E97",
"M. c #8A8A93",
"N. c #8B8E98",
"B. c #8A8791",
"V. c #84949C",
"C. c #8D929C",
"Z. c #949394",
"A. c #9B9B9B",
"S. c #94979D",
"D. c #968B93",
"F. c #B89B9F",
"G. c #8B98A1",
"H. c #939BA5",
"J. c #949EA8",
"K. c #959BA4",
"L. c #96A3AD",
"P. c #98A5AF",
"I. c #97A7B1",
"U. c #99A7B1",
"Y. c #9AABB5",
"T. c #9BAEB8",
"R. c #9DB1BB",
"E. c #A7A7AE",
"W. c #A3B4BD",
"Q. c #ADB4B9",
"!. c #BABBBB",
"~. c #B7B9B9",
"^. c #ABAEB2",
"/. c #C4928F",
"(. c #CAAEAD",
"). c #E8BEBD",
"_. c #ABBAC3",
"`. c #A2B6C1",
"'. c #B7C5CD",
"]. c #BCCAD0",
"[. c #C7C7C9",
"{. c #C2CED4",
"}. c #CAD4D9",
"|. c #DBD6D8",
" X c #E9C7C7",
".X c #F2C6C6",
"XX c #D1DBE0",
"oX c #DFDFE0",
"OX c #DBE2E7",
"+X c #E1E1E1",
"@X c #E6EAED",
"#X c #EBECEC",
"$X c #E8E5E6",
"%X c #F4ECEC",
"&X c #E8EDF0",
"*X c #EEF2F4",
"=X c #F4F4F5",
"-X c #F7FAFB",
";X c None",
/* pixels */
";X;X;X;X;X;X;X;X;X;X;X;X;X;X;X;XX X X     X     X ;X;X;X;X;X;X;X;X;X;X;X;X;X;X;X;X;X;X;X;X;X;X;X;X;X",
";X;X;X;X;X;X;X;X;X;X;X;X;X;X;X;XX X o O + O O O O ;X;X;X;X;X;X;X;X;X;X;X;X;X;X;X;X;X;X;X;X;X;X;X;X;X",
";X;X;X;X;X;X;X;X;X;X;X;X;X;X;X;XX O @ , 2 3 3 2 , : ;X;X;X;X;X;X;X;X;X;X;X;X;X;X;X;X;X;X;X;X;X;X;X;X",
";X;X;X;X;X;X;X;X;X;X;X;X;X;X;X;XX + , f c v v h f 2 + ;X;X;X;X;X;X;X;X;X;X;X;X;X;X;X;X;X;X;X;X;X;X;X",
";X;X;X;X;X;X;X;X;X;X;X;X;X;X;X;XX + s v  .O.O. .c 3 O   ;X;X;X;X;X;X;X;X;X;X;X;X;X;X;X;X;X;X;X;X;X;X",
";X;X;X;X;X;X;X;X;X;X;X;X;X;X;X;XX + s h } X.;.;.n 4 +     ;X;X;X;X;X;X;X;X;X;X;X;X;X;X;X;X;X;X;X;X;X",
";X;X;X;X;X;X;X;X;X;X;X;X;X;X;X;X;X;X> s f n 2.1.I e .                   ;X;X;X;X;X;X;X;X;X;X;X;X;X;X",
";X;X;X;X;X;X;X;X;X;X;X;X;X;X;X;X;X;X;X@ 1 z E / U a & X   X O X O O X O $ ;X;X;X;X;X;X;X;X;X;X;X;X;X",
";X;X;X;X;X;X;X;X;X;X;X;X;X;X;X;X;X;X% - q Z ! ] ! S t q q q q q 7 q q q 7 7 ;X;X;X;X;X;X;X;X;X;X;X;X",
";X;X;X;X;X;X;X;X;X;X;X;X;X;X;X;X;X$ 9 i A R _ f.] ) W T T T T T T T W W H N 7 ;X;X;X;X;X;X;X;X;X;X;X",
";X;X;X;X;X;X;X;X;X;X;X;X;X;X;X;X  * y L _ ] h.v.v.m.V.V.V.V.V.V.V.G.G.x.z.J 7 X ;X;X;X;X;X;X;X;X;X;X",
";X;X;X;X;X;X;X;X;X;X;X;X;X;X;X& - 0 S ( b.M.v.M.C.L.Y.T.R.T.T.T.R.R.`.T.x.H 7 X   ;X;X;X;X;X;X;X;X;X",
";X;X;X;X;X;X;X;X;X;X;X;X;X;X& 0 i A ~ v.K.K.C.C.H.I.T.R.R.R.R.T.R.R.`.T.x.T 8 X   ;X;X;X;X;X;X;X;X;X",
";X;X;X;X;X;X;X;X;X;X;X;X;XX * i L ( v.G.L.U.P.P.I.Y.Y.T.T.T.T.T.Y.T.`.T.V.H 7 X   ;X;X;X;X;X;X;X;X;X",
";X;X;X;X;X;X;X;X;X;X;X;X;XX * N ~ B.H.I.T.W.`.`._._._._._._._._._.'.'._.G.T 8 X   ;X;X;X;X;X;X;X;X;X",
";X;X;X;X;X;X;X;X;X;X;X;X    - Z g.H.U.U.W._.].}.XX}.XXXXXXXXXXXXXXXXOX}.Q.) w X   ;X;X;X;X;X;X;X;X;X",
";X;X;X;X;X;X;X;X;X;X;X;X    6 D g.U.Y.Y.W.'.|.@X*X*X*X*X*X*X*X*X=X=X-X*X].[ y X   ;X;X;X;X;X;X;X;X;X",
";X;X;X;X;X;X;X;X;X;X;X;X  X 6 D c.U.T.Y.W.{.@X=X-X@X+XoXoXoXoX+X+X$X$X+X~.^ w X   ;X;X;X;X;X;X;X;X;X",
";X;X;X;X;X;X;X;X;X;X;X;X    7 D x.T.`.T.W.{.@X=XoX~.A.Z.Z.Z.Z.A.A.A.A.Z.[ A 6 X   ;X;X;X;X;X;X;X;X;X",
";X;X;X;X;X;X;X;X;X;X;X;X    6 J x.T.R.T.W.}.@X*X[.e.A p i N C C C C C B y 8 % o   ;X;X;X;X;X;X;X;X;X",
";X;X;X;X;X;X;X;X;X;X;X;X    6 D z.I.Y.Y.`.}.&X#X!.^ y - 6 8 6 * % & - 8 7 * O X X ;X;X;X;X;X;X;X;X;X",
";X;X;X;X;X;X;X;X;X;X;X;X    - S g.J.Y.Y.`.{.@X*X[.Z.^ K K K C 8 O & y F A y * X   ;X;X;X;X;X;X;X;X;X",
";X;X;X;X;X;X;X;X;X;X;X;X    - C _ G.J.U.W.{.@X-X%X|.!.~.!.^.n.S * 9 Q A.S.Q 9 X   ;X;X;X;X;X;X;X;X;X",
";X;X;X;X;X;X;X;X;X;X;X;X  X * i E f.N.J.^.].OX=X%X%X%X%X%X$X^.Q r z n.[.[.[ a X   ;X;X;X;X;X;X;X;X;X",
";X;X;X;X;X;X;X;X;X;X;X;X  X & 9 B R g.M.J.Q.{.|.|. X X.X.X)./.6.m M i.(.(./ w o   ;X;X;X;X;X;X;X;X;X",
";X;X;X;X;X;X;X;X;X;X;X;X  X $ & e u L g.N.J.E.E.F./.a.s.s.a.d.*.%.%.7.d.y.n 1 X   ;X;X;X;X;X;X;X;X;X",
";X;X;X;X;X;X;X;X;X;X;X;X;XX X X O 6 B E h.b.M.l.u.9.4.4.4.4.&.*.-.-.=.&.X.l < X   ;X;X;X;X;X;X;X;X;X",
";X;X;X;X;X;X;X;X;X;X;X;X;XX       % a Y 8.t.w.8.6.<.>.>.;.@.*.=.-.p.7.3.n l < X   ;X;X;X;X;X;X;X;X;X",
";X;X;X;X;X;X;X;X;X;X;X;X;X;X;X    % k n ,.,.3.,.,.1.8.8.8.8.0.y.u.u.y.0.Y x = X   ;X;X;X;X;X;X;X;X;X",
";X;X;X;X;X;X;X;X;X;X;X;X;X;X;X    @ d n @.@.:.:.<.w.e.j.h.j.e.n.j.j.b.j./ B - X   ;X;X;X;X;X;X;X;X;X",
";X;X;X;X;X;X;X;X;X;X;X;X;X;X;X> O @ j n 3.:.3.3.1.r.M.C.C.M.C.N.N.N.C.N.] Z 6 X   ;X;X;X;X;X;X;X;X;X",
";X;X;X;X;X;X;X;X;X;X;X;X;X;X} d @ @ x I 1.9.9.w.r.D.H.P.L.L.L.L.J.J.I.J.g.F 6 X   ;X;X;X;X;X;X;X;X;X",
";X;X;X;X;X;X;X;X;X;X;X;X;X#. .f : * y E e.r.j.j.l.H.L.I.I.I.I.I.I.Y.Y.I.m.G 7 X   ;X;X;X;X;X;X;X;X;X",
";X;X;X;X;X;X;X;X;X;X;X;X#.+. .h : * u E f.b.B.k.f.x.x.x.x.x.c.c.c.x.J.I.x.H 7 .   ;X;X;X;X;X;X;X;X;X",
";X;X;X;X;X;X;X;X;X;X;X+.#.+. .f : * u ! f.M.B.h.g.W J J D J J D G T g.m.f.J 6 X   ;X;X;X;X;X;X;X;X;X",
";X;X;X;X;X;X;X;X;X;X+.+.#.+. .g : * u E h.B.b.f.R N 6 6 6 6 6 6 6 u R g._ S 6 X   ;X;X;X;X;X;X;X;X;X",
";X;X;X;X;X;X;X;X;X+.+.#.#.+. .g : * u E h.k.] ~ P r < # . o X $ 6 w P E R N 6 X   ;X;X;X;X;X;X;X;X;X",
";X;X;X;X;X;X;X;X;X+.+.+.#.#. .g > * N ! f._ L C z l f 5 # . & 0 N B B B N 0 & X ;X;X;X;X;X;X;X;X;X;X",
";X;X;X;X;X;X;X;X;X+.+.+.#.+. .g : * N ! ] E N e k c b h 5 + 6 Z E R B 0 = $ O ;X;X;X;X;X;X;X;X;X;X;X",
";X;X;X;X;X;X;X;X;X..$.$.+.$.} f : & y L E A 9 @ 3 v  .v 3 + 7 B E R N =     ;X;X;X;X;X;X;X;X;X;X;X;X",
";X;X;X;X;X;X;X;X;X;X{ { } { c 3 @ O 8 i B y - O > h v h , O * t C C w O     ;X;X;X;X;X;X;X;X;X;X;X;X",
";X;X;X;X;X;X;X;X;X;X;X;X;X;X5 : o O & - 6 - O . ;X;Xs > + O $ * 6 6 * O ;X;X;X;X;X;X;X;X;X;X;X;X;X;X",
";X;X;X;X;X;X;X;X;X;X;X;X;X;X;XX X X O . X X   ;X;X;X;XX . X X o o o X ;X;X;X;X;X;X;X;X;X;X;X;X;X;X;X",
";X;X;X;X;X;X;X;X;X;X;X;X;X;X;X  X           ;X;X;X;X;X;XX             ;X;X;X;X;X;X;X;X;X;X;X;X;X;X;X",
";X;X;X;X;X;X;X;X;X;X;X;X;X;X;X;X;X      ;X;X;X;X;X;X;X;X;X;X      ;X;X;X;X;X;X;X;X;X;X;X;X;X;X;X;X;X",
";X;X;X;X;X;X;X;X;X;X;X;X;X;X;X;X;X;X;X;X;X;X;X;X;X;X;X;X;X;X;X;X;X;X;X;X;X;X;X;X;X;X;X;X;X;X;X;X;X;X",
";X;X;X;X;X;X;X;X;X;X;X;X;X;X;X;X;X;X;X;X;X;X;X;X;X;X;X;X;X;X;X;X;X;X;X;X;X;X;X;X;X;X;X;X;X;X;X;X;X;X",
";X;X;X;X;X;X;X;X;X;X;X;X;X;X;X;X;X;X;X;X;X;X;X;X;X;X;X;X;X;X;X;X;X;X;X;X;X;X;X;X;X;X;X;X;X;X;X;X;X;X",
";X;X;X;X;X;X;X;X;X;X;X;X;X;X;X;X;X;X;X;X;X;X;X;X;X;X;X;X;X;X;X;X;X;X;X;X;X;X;X;X;X;X;X;X;X;X;X;X;X;X",
";X;X;X;X;X;X;X;X;X;X;X;X;X;X;X;X;X;X;X;X;X;X;X;X;X;X;X;X;X;X;X;X;X;X;X;X;X;X;X;X;X;X;X;X;X;X;X;X;X;X"
};
