/* XPM */
static char *_629642006810[] = {
/* columns rows colors chars-per-pixel */
"50 50 208 2 ",
"   c #1D0F09",
".  c #1E100B",
"X  c #25150E",
"o  c #2C1C14",
"O  c #36251C",
"+  c #3A251B",
"@  c #3F2A1E",
"#  c #3D2C23",
"$  c #432B1E",
"%  c #49301F",
"&  c #412F25",
"*  c #542F22",
"=  c #433127",
"-  c #4B3526",
";  c #443329",
":  c #4A362A",
">  c #4E382A",
",  c #503724",
"<  c #533925",
"1  c #5A3C26",
"2  c #543B2A",
"3  c #5A3E2A",
"4  c #4E3C33",
"5  c #523E34",
"6  c #5A3F31",
"7  c #673C2C",
"8  c #5C412B",
"9  c #5B4235",
"0  c #55423B",
"q  c #5D4538",
"w  c #64422D",
"e  c #664634",
"r  c #63493A",
"t  c #6C4C3D",
"y  c #664A38",
"u  c #7F533E",
"i  c #5B4B43",
"p  c #634C43",
"a  c #6A4F43",
"s  c #6A554C",
"d  c #7B5544",
"f  c #745C4D",
"g  c #765745",
"h  c #775D54",
"j  c #695852",
"k  c #786356",
"l  c #884B3F",
"z  c #855846",
"x  c #8B5B44",
"c  c #8B5B49",
"v  c #8C634F",
"b  c #96624B",
"n  c #856251",
"m  c #876658",
"M  c #956B5A",
"N  c #9E6E5B",
"B  c #9A6853",
"V  c #9E725F",
"C  c #A26E5D",
"Z  c #AA6B5C",
"A  c #A56755",
"S  c #A5715D",
"D  c #AB755D",
"F  c #A87056",
"G  c #B1775C",
"H  c #8A6D64",
"J  c #976F60",
"K  c #88756B",
"L  c #9F7161",
"P  c #977668",
"I  c #937A71",
"U  c #8B7E79",
"Y  c #AC6F63",
"T  c #B36964",
"R  c #A47565",
"E  c #AD7465",
"W  c #AC7966",
"Q  c #AD7B6A",
"!  c #A77868",
"~  c #B47B65",
"^  c #BE746F",
"/  c #B27C6B",
"(  c #B97C6D",
")  c #B37768",
"_  c #AC7E70",
"`  c #A57F72",
"'  c #BC7B73",
"]  c #BA7F75",
"[  c #C17977",
"{  c #998476",
"}  c #AD806F",
"|  c #B6816B",
" . c #BC836B",
".. c #AF8374",
"X. c #A3877A",
"o. c #B58473",
"O. c #BC8574",
"+. c #BE8874",
"@. c #BD8679",
"#. c #B2887A",
"$. c #BC8A7C",
"%. c #B08679",
"&. c #C4876A",
"*. c #C18677",
"=. c #C18A72",
"-. c #C3847A",
";. c #C38C7C",
":. c #C98E7E",
">. c #C8877E",
",. c #CB927D",
"<. c #C3937E",
"1. c #D89879",
"2. c #A78C82",
"3. c #BA8E81",
"4. c #B38D82",
"5. c #AF958A",
"6. c #A59288",
"7. c #B7968A",
"8. c #BC9F92",
"9. c #B59F93",
"0. c #BAA49B",
"q. c #B1A5A0",
"w. c #BDB3AE",
"e. c #C48F82",
"r. c #CA8D82",
"t. c #CB8B85",
"y. c #C49284",
"u. c #CE9484",
"i. c #C4968A",
"p. c #CE9689",
"a. c #C19A8A",
"s. c #CE998B",
"d. c #CC9987",
"f. c #D19584",
"g. c #D39C85",
"h. c #DA9C84",
"j. c #D49B8C",
"k. c #DA9E8B",
"l. c #D29789",
"z. c #CC9E91",
"x. c #D59E93",
"c. c #DA9E92",
"v. c #DAA18E",
"b. c #D4A18C",
"n. c #C4A79B",
"m. c #D5A295",
"M. c #DBA393",
"N. c #DBA599",
"B. c #D4AC9D",
"V. c #DEAA9A",
"C. c #D9A696",
"Z. c #E1A696",
"A. c #E2AA96",
"S. c #E4AC9C",
"D. c #E8AF9F",
"F. c #E8B09E",
"G. c #C0ADA4",
"H. c #DAACA1",
"J. c #C4B4AC",
"K. c #CBB4AA",
"L. c #DDB1A6",
"P. c #C9BAB5",
"I. c #D4BBB2",
"U. c #E5AEA1",
"Y. c #E5B1A4",
"T. c #EAB3A5",
"R. c #E6B5A9",
"E. c #EAB6AA",
"W. c #EDB9AD",
"Q. c #E6BAAF",
"!. c #F2BBAE",
"~. c #EEBDB2",
"^. c #F1BEB2",
"/. c #CEC0B8",
"(. c #DDC1B5",
"). c #D4C5BD",
"_. c #EAC2B7",
"`. c #F2C2B6",
"'. c #F3C6BB",
"]. c #F4C9BE",
"[. c #CFC5C0",
"{. c #D5C9C3",
"}. c #DACBC4",
"|. c #DBCEC8",
" X c #D3C9C5",
".X c #DFD3CF",
"XX c #EDCEC7",
"oX c #E7D4CB",
"OX c #E1D6D1",
"+X c #E4D9D5",
"@X c #EDD9D5",
"#X c #E3DCD9",
"$X c #E9DED9",
"%X c #ECD7D2",
"&X c #F1DFDA",
"*X c #EDE2DC",
"=X c #E7E0DD",
"-X c #EAE4E1",
";X c #EFE9E7",
":X c #EFEAE8",
">X c #E7E3E1",
",X c #F3EAE7",
"<X c #F2EDEB",
"1X c #F3E6E1",
"2X c #F4F0EF",
"3X c #F7F3F2",
"4X c #FDF9F7",
"5X c None",
/* pixels */
"5X5X5X5X5X5X5X5X5X5X5X5X5X5X5X5X5X5X5X5X5X5X5X5X5X5X5X5X5X5X5X5X5X5X5X5X5X5X5X5X5X5X5X5X5X5X5X5X5X5X",
"5X5X5X5X5X5X5X5X5X5X5X5X5X5X5X5X5X5X5X5X5X5X5X5X5X5X5X5X5X5X5X5X5X5X5X5X5X5X5X5X5X5X5X5X5X5X5X5X5X5X",
"5X5X5X5X5X5X5X5X5X5X5X5X5X5X5X5X5X5X5X5X5X5X5X+XJ.0.5.5.0.|.3X5X5X5X5X5X5X5X5X5X5X5X5X5X5X5X5X5X5X5X",
"5X5X5X5X5X5X5X5X5X5X5X5X5X5X5X5X5X5X5X5X3X XX.g e 8 1 8 8 g 2.).3X5X5X5X5X5X5X5X5X5X5X5X5X5X5X5X5X5X",
"5X5X5X5X5X5X5X5X5X5X5X5X5X5X5X5X5X5X5X+X2.r , < < % 8 8 8 8 < y { /.,X5X5X5X5X5X5X5X5X5X5X5X5X5X5X5X",
"5X5X5X5X5X5X5X5X5X5X5X5X5X5X5X5X5X5X).f - = < , < 8 - > > - , < 1 y X.*X5X5X5X5X5X5X5X5X5X5X5X5X5X5X",
"5X5X5X5X5X5X5X5X5X5X5X5X5X5X5X5X5X.Xj $ - - < < - > > - - - < < 8 8 w P +X5X5X5X5X5X5X5X5X5X5X5X5X5X",
"5X5X5X5X5X5X5X5X5X5X5X5X5X5X5X5X>Xk & & = < : ; : - - - > - - > % 8 8 8 m }.5X5X5X5X5X5X5X5X5X5X5X5X",
"5X5X5X5X5X5X5X5X5X5X5X5X5X5X5X5X6.@ O # # ; ; ; # # ; # : 0 : ; : > , < 8 J *X5X5X5X5X5X5X5X5X5X5X5X",
"5X5X5X5X5X5X5X5X5X5X5X5X5X5X5X#Xi O @ @ # # = = # ; ; # # ; : ; ; : ; 2 8 w w.5X5X5X5X5X5X5X5X5X5X5X",
"5X5X5X5X5X5X5X5X5X5X5X5X5X5X5Xq.# # = = ; ; = = ; # # # ; # ; # : # = : < , m *X5X5X5X5X5X5X5X5X5X5X",
"5X5X5X5X5X5X5X5X5X5X5X5X5X5X5Xk o O ; 9 y y 2 > ; # : ; 0 ; # # # # # ; = < 8 J.5X5X5X5X5X5X5X5X5X5X",
"5X5X5X5X5X5X5X5X5X5X5X5X5X5X#Xi o # > n W S n a 6 : 5 5 ; # # 0 # # # # = - < { 5X5X5X5X5X5X5X5X5X5X",
"5X5X5X5X5X5X5X5X5X5X5X5X5X5Xw.O o # s $.A.Z.j.o.m a p s 0 # # 0 ; = # # @ = % f =X5X5X5X5X5X5X5X5X5X",
"5X5X5X5X5X5X5X5X5X5X5X5X5X5XU   o ; V C.F.D.E.E.H.7.P H k 0 0 i 4 = # # # - % 9 /.5X5X5X5X5X5X5X5X5X",
"5X5X5X5X5X5X5X5X5X5X5X5X5X>Xi   o 2 } M.F.T.T.^.'.^.Q.B.8.P k k k a q 9 e u w 9 w.5X5X5X5X5X5X5X5X5X",
"5X5X5X5X5X5X5X5X5X5X5X5X4XG.o   o q o.b.A.A.T.!.`.'.].'.'.L.7.i.y.y.y.@.W &.x 9 ).5X5X5X5X5X5X5X5X5X",
"5X5X5X5X5X5X5X5X5X5X5X5XXXZ X X O u  .b.V.F.T.T.`.`.'.'.'.`.Q.Y.U.T.E.S.v.1.v j 5X5X5X5X5X5X5X5X5X5X",
"5X5X5X5X5X5X5X5X5X5X5X,Xt.z o X @ v +.b.V.S.S.F.T.`.`.`.~.^.!.W.!.!.T.A.h.1.b { 5X5X5X5X5X5X5X5X5X5X",
"5X5X5X5X5X5X5X5X5X5X5X%X>.A + o y D +.1.M.S.F.F.F.T.!.T.T.T.T.T.T.T.A.k.1.1.l 0.5X5X5X5X5X5X5X5X5X5X",
"5X5X5X5X5X5X5X5X5X5X5X@Xp.Z $ & N  .&.1.C.V.F.Y.U.U.Y.U.U.T.U.T.T.A.v.h.g.&.v |.5X5X5X5X5X5X5X5X5X5X",
"5X5X5X5X5X5X5X5X5X5X5X@Xc.' * 3  .+.+.,.b.V.Y.E.E.Y.U.U.T.E.U.S.Z.Z.k.h.g.&.5.5X5X5X5X5X5X5X5X5X5X5X",
"5X5X5X5X5X5X5X5X5X5X5X&Xm.t.7 d +.+.+.=.b.C.Y.W.W.E.R.E.Y.U.U.S.Z.M.M.j.1.y.$X5X5X5X5X5X5X5X5X5X5X5X",
"5X5X5X5X5X5X5X5X5X5X5X1XY.C.b S ,. .F } ..$.B.Y.~.~.~.R.E.W.Y.U.T.T.S.v.=.B.5X5X5X5X5X5X5X5X5X5X5X5X",
"5X5X5X5X5X5X5X5X5X5X5X5X_.b.F ~ u.| c z d d J %.z.L.U.R.R.Y.R.Q.E.T.V.p. .(.5X5X5X5X5X5X5X5X5X5X5X5X",
"5X5X5X5X5X5X5X5X5X5X5X5X*Xs.A  .g.j.~ v d t 6 a d J $.x.N.N.x.z.i.#.R b C oX5X5X5X5X5X5X5X5X5X5X5X5X",
"5X5X5X5X5X5X5X5X5X5X5X5X4XI.A ~ g.V.d.Q M H j I z z L e.s.t._ v t 9 8 7 M *X5X5X5X5X5X5X5X5X5X5X5X5X",
"5X5X5X5X5X5X5X5X5X5X5X5X5X.XN G g.V.m.d.( ..4.4.] ] Q ;.t.Q L h ; s t x 7.5X5X5X5X5X5X5X5X5X5X5X5X5X",
"5X5X5X5X5X5X5X5X5X5X5X5X5X,X..G ,.V.F.V.s.e.;.$.e.y.;.x.e.o.$.2.I X.B ~ (.5X5X5X5X5X5X5X5X5X5X5X5X5X",
"5X5X5X5X5X5X5X5X5X5X5X5X5X5X8.G b.V.T.R.U.m.m.m.m.s.s.S.y.y.y.@.( ~ *.,.oX5X5X5X5X5X5X5X5X5X5X5X5X5X",
"5X5X5X5X5X5X5X5X5X5X5X5X5X5Xn.F ,.M.Y.W.E.R.U.U.m.f.S.T.u.d.m.p.y.:.g.b.&X5X5X5X5X5X5X5X5X5X5X5X5X5X",
"5X5X5X5X5X5X5X5X5X5X5X5X5X5XK.A ~ ,.C.S.R.R.U.N.M.j.U.E.:.l.N.m.v.j.g.V.,X5X5X5X5X5X5X5X5X5X5X5X5X5X",
"5X5X5X5X5X5X5X5X5X5X5X5X5X5XXXC D / ;.j.c.j.l.u.j.k.T.E.,.f.M.M.c.c.g.Q.5X5X5X5X5X5X5X5X5X5X5X5X5X5X",
"5X5X5X5X5X5X5X5X5X5X5X5X5X5X+XQ W | O.*.*.;.j.u.Z.M.W.W.f.-.:.l.h.f.,.oX5X5X5X5X5X5X5X5X5X5X5X5X5X5X",
"5X5X5X5X5X5X5X5X5X5X5X5X5X5X5X7.~ | O.| o.@.s.r.:.M.!.T.h.:.@.*.-.) a.<X5X5X5X5X5X5X5X5X5X5X5X5X5X5X",
"5X5X5X5X5X5X5X5X5X5X5X5X5X5X5Xn.Q Q @.@.O.$.y.y.! ) k.k.&.*.@.Q ) D ).5X5X5X5X5X5X5X5X5X5X5X5X5X5X5X",
"5X5X5X5X5X5X5X5X5X5X5X5X5X5X5XI.! W +.$.@.Y ( y.e.R E ) ) / Q ) ) a.,X5X5X5X5X5X5X5X5X5X5X5X5X5X5X5X",
"5X5X5X5X5X5X5X5X5X5X5X5X5X5X5XOXR E | <.:.-.T T ' [ ] ) Y E | O.O.|.5X5X5X5X5X5X5X5X5X5X5X5X5X5X5X5X",
"5X5X5X5X5X5X5X5X5X5X5X5X5X5X5X2X7.S W O.;.:.t.t.t.[ ^ T Y ) o./ K.2X5X5X5X5X5X5X5X5X5X5X5X5X5X5X5X5X",
"5X5X5X5X5X5X5X5X5X5X5X5X5X5X5X5X}.R S ~ ;.r.r.y.t.[ [ [ ) ) R n.;X5X5X5X5X5X5X5X5X5X5X5X5X5X5X5X5X5X",
"5X5X5X5X5X5X5X5X5X5X5X5X5X5X5X5X3X8.N ! @.r.t.t.@.' @.( ) C 0.;X5X5X5X5X5X5X5X5X5X5X5X5X5X5X5X5X5X5X",
"5X5X5X5X5X5X5X5X5X5X5X5X5X5X5X5X5X#XX.L o.e.s.p.r.-.-.( N 7.=X5X5X5X5X5X5X5X5X5X5X5X5X5X5X5X5X5X5X5X",
"5X5X5X5X5X5X5X5X5X5X5X5X5X5X5X5X5X5X XP Q 3.j.x.p.r.-.W 5.#X5X5X5X5X5X5X5X5X5X5X5X5X5X5X5X5X5X5X5X5X",
"5X5X5X5X5X5X5X5X5X5X5X5X5X5X5X5X5X5X5XP.X.Q e.e.y.$.o.q.-X5X5X5X5X5X5X5X5X5X5X5X5X5X5X5X5X5X5X5X5X5X",
"5X5X5X5X5X5X5X5X5X5X5X5X5X5X5X5X5X5X5X4X X5.` ` o.#.J.;X5X5X5X5X5X5X5X5X5X5X5X5X5X5X5X5X5X5X5X5X5X5X",
"5X5X5X5X5X5X5X5X5X5X5X5X5X5X5X5X5X5X5X5X5X-X).P.P. X<X5X5X5X5X5X5X5X5X5X5X5X5X5X5X5X5X5X5X5X5X5X5X5X",
"5X5X5X5X5X5X5X5X5X5X5X5X5X5X5X5X5X5X5X5X5X5X5X5X5X5X5X5X5X5X5X5X5X5X5X5X5X5X5X5X5X5X5X5X5X5X5X5X5X5X",
"5X5X5X5X5X5X5X5X5X5X5X5X5X5X5X5X5X5X5X5X5X5X5X5X5X5X5X5X5X5X5X5X5X5X5X5X5X5X5X5X5X5X5X5X5X5X5X5X5X5X",
"5X5X5X5X5X5X5X5X5X5X5X5X5X5X5X5X5X5X5X5X5X5X5X5X5X5X5X5X5X5X5X5X5X5X5X5X5X5X5X5X5X5X5X5X5X5X5X5X5X5X",
"5X5X5X5X5X5X5X5X5X5X5X5X5X5X5X5X5X5X5X5X5X5X5X5X5X5X5X5X5X5X5X5X5X5X5X5X5X5X5X5X5X5X5X5X5X5X5X5X5X5X"
};
