/* XPM */
static char *_630226129054[] = {
/* columns rows colors chars-per-pixel */
"50 50 171 2 ",
"   c #23150F",
".  c #261710",
"X  c #281811",
"o  c #2B1B14",
"O  c #2F1D16",
"+  c #332119",
"@  c #36241B",
"#  c #38261D",
"$  c #3B281E",
"%  c #3C291F",
"&  c #3E2B21",
"*  c #3E2C22",
"=  c #402D23",
"-  c #402E24",
";  c #402F26",
":  c #413026",
">  c #413027",
",  c #433127",
"<  c #483427",
"1  c #493427",
"2  c #443228",
"3  c #453328",
"4  c #473428",
"5  c #503727",
"6  c #513826",
"7  c #513827",
"8  c #523928",
"9  c #533A28",
"0  c #533B2B",
"q  c #533C2D",
"w  c #553D2E",
"e  c #573E2E",
"r  c #593E2D",
"t  c #5B3F2D",
"y  c #5C402D",
"u  c #5D402E",
"i  c #60412E",
"p  c #60422F",
"a  c #624331",
"s  c #624433",
"d  c #644635",
"f  c #634738",
"g  c #66493A",
"h  c #674A3B",
"j  c #694B3C",
"k  c #6B4C3D",
"l  c #6C4D3E",
"z  c #704F3F",
"x  c #725040",
"c  c #755242",
"v  c #785443",
"b  c #7B5644",
"n  c #7E5847",
"m  c #7F5948",
"M  c #845B4A",
"N  c #875D4C",
"B  c #8A604E",
"V  c #8F6351",
"C  c #8F6C5D",
"Z  c #916553",
"A  c #906856",
"S  c #926A59",
"D  c #926D5D",
"F  c #9D6C5B",
"G  c #9A6C5C",
"H  c #A06C5C",
"J  c #A36C5C",
"K  c #A46E5D",
"L  c #A5705E",
"P  c #A7725E",
"I  c #A9745F",
"U  c #9E7C6D",
"Y  c #AB7560",
"T  c #AD7762",
"R  c #AE7862",
"E  c #AF7964",
"W  c #AF7A66",
"Q  c #AF7A67",
"!  c #A77C6D",
"~  c #AF7A68",
"^  c #AE7B69",
"/  c #AC7B6B",
"(  c #AE7B6A",
")  c #A87B6C",
"_  c #A97B6C",
"`  c #AB7D6D",
"'  c #AC7E6E",
"]  c #B07865",
"[  c #B07E6E",
"{  c #B47E6F",
"}  c #B67F6E",
"|  c #B77E6F",
" . c #B77F6F",
".. c #A17F70",
"X. c #B7806F",
"o. c #A38172",
"O. c #A48071",
"+. c #A78373",
"@. c #A78475",
"#. c #A98475",
"$. c #AB8878",
"%. c #AD8879",
"&. c #AE8B7C",
"*. c #B88170",
"=. c #B88272",
"-. c #B98372",
";. c #BA8473",
":. c #BA8574",
">. c #BC8675",
",. c #BD8676",
"<. c #BE8777",
"1. c #C08877",
"2. c #C08978",
"3. c #C38A78",
"4. c #C48B7A",
"5. c #C58C7B",
"6. c #C58C7C",
"7. c #C68D7D",
"8. c #C58C7F",
"9. c #C58D80",
"0. c #C68E82",
"q. c #C78F83",
"w. c #C79184",
"e. c #C79386",
"r. c #C89486",
"t. c #CA9586",
"y. c #CE9685",
"u. c #CC9586",
"i. c #D19786",
"p. c #D29886",
"a. c #D39987",
"s. c #D39988",
"d. c #D39A89",
"f. c #D59B8A",
"g. c #D69C8A",
"h. c #D79D8B",
"j. c #D89E8D",
"k. c #D99F8D",
"l. c #D9A08F",
"z. c #C8A799",
"x. c #DAA191",
"c. c #DAA392",
"v. c #DBA494",
"b. c #DDA695",
"n. c #DDA797",
"m. c #E0A999",
"M. c #E2AA99",
"N. c #E3AB9B",
"B. c #E5AD9D",
"V. c #E5AE9F",
"C. c #D1B2A6",
"Z. c #D6B7AB",
"A. c #DFBBAF",
"S. c #E6AFA0",
"D. c #E7B0A1",
"F. c #E8B1A3",
"G. c #E9B2A5",
"H. c #E8B3A6",
"J. c #EAB4A7",
"K. c #E9B5A9",
"L. c #E9B6AA",
"P. c #EBB8AC",
"I. c #EBB9AD",
"U. c #EDBBAF",
"Y. c #E5BEB2",
"T. c #EEBCB1",
"R. c #EFBEB3",
"E. c #E9BFB4",
"W. c #F0C0B4",
"Q. c #F0C1B6",
"!. c None",
/* pixels */
"!.!.!.!.!.!.!.!.!.!.!.!.!.!.!.!.!.!.!.!.!.!.!.!.!.!.!.!.!.!.!.!.!.!.!.!.!.!.!.!.!.!.!.!.!.!.!.!.!.!.",
"!.!.!.!.!.!.!.!.!.!.!.!.!.!.!.!.!.!.!.!.!.!.!.!.!.!.!.!.!.!.!.!.!.!.!.!.!.!.!.!.!.!.!.!.!.!.!.!.!.!.",
"!.!.!.!.!.!.!.!.!.!.!.!.!.!.!.!.!.!.!.!.!.!.!.!.+.....O...!.!.!.!.!.!.!.!.!.!.!.!.!.!.!.!.!.!.!.!.!.",
"!.!.!.!.!.!.!.!.!.!.!.!.!.!.!.!.!.!.!.!.!.C.D f d p u u p f D C.!.!.!.!.!.!.!.!.!.!.!.!.!.!.!.!.!.!.",
"!.!.!.!.!.!.!.!.!.!.!.!.!.!.!.!.!.!.!.!.! u 6 0 6 6 r t t u 6 p D !.!.!.!.!.!.!.!.!.!.!.!.!.!.!.!.!.",
"!.!.!.!.!.!.!.!.!.!.!.!.!.!.!.!.!.!.!.l 0 3 5 6 6 9 5 5 5 3 6 9 9 d ! !.!.!.!.!.!.!.!.!.!.!.!.!.!.!.",
"!.!.!.!.!.!.!.!.!.!.!.!.!.!.!.!.!.!.c , 3 5 5 5 6 6 5 5 5 5 6 9 9 r f D !.!.!.!.!.!.!.!.!.!.!.!.!.!.",
"!.!.!.!.!.!.!.!.!.!.!.!.!.!.!.!.!.l , - , 0 5 5 5 3 3 3 < 1 0 0 6 u 6 y b Z.!.!.!.!.!.!.!.!.!.!.!.!.",
"!.!.!.!.!.!.!.!.!.!.!.!.!.!.!.!.D $ # $ $ 4 , , = $ > > > 0 q 3 5 5 5 0 u M !.!.!.!.!.!.!.!.!.!.!.!.",
"!.!.!.!.!.!.!.!.!.!.!.!.!.!.!.!.* $ * $ > * 4 , - 3 > > - - 3 > 3 3 4 0 9 u &.!.!.!.!.!.!.!.!.!.!.!.",
"!.!.!.!.!.!.!.!.!.!.!.!.!.!.!.U $ * > , 4 3 , > 3 - - > - - 3 3 4 * > 4 9 6 f !.!.!.!.!.!.!.!.!.!.!.",
"!.!.!.!.!.!.!.!.!.!.!.!.!.!.!.1 + # , s f j 0 q 3 & > - 3 > - & * * * * 4 6 y U !.!.!.!.!.!.!.!.!.!.",
"!.!.!.!.!.!.!.!.!.!.!.!.!.!.!.4 X # q N Q F n h h > q s 0 * > 4 * & * & , 6 9 U !.!.!.!.!.!.!.!.!.!.",
"!.!.!.!.!.!.!.!.!.!.!.!.!.!.U + O > c 8.N.b.s.X.Z j k l 4 3 3 w , , * * $ * 4 1 !.!.!.!.!.!.!.!.!.!.",
"!.!.!.!.!.!.!.!.!.!.!.!.!.!.1 . o 2 S c.B.F.H.H.v.e._ C N f w j 0 4 * % * 0 * 1 !.!.!.!.!.!.!.!.!.!.",
"!.!.!.!.!.!.!.!.!.!.!.!.!.!.1   O 0 / c.N.F.J.T.Q.Q.I.n.s.C N C B d h s f b s 1 !.!.!.!.!.!.!.!.!.!.",
"!.!.!.!.!.!.!.!.!.!.!.!.!.+.X   O s ;.l.m.M.H.P.U.Q.Q.Q.Q.K.e.e.y.u.u.9.Q 1.B 1 !.!.!.!.!.!.!.!.!.!.",
"!.!.!.!.!.!.!.!.!.!.!.!.A.] X X + z ;.p.N.S.F.F.W.Q.Q.Q.Q.W.I.D.B.D.H.M.h.p.F f !.!.!.!.!.!.!.!.!.!.",
"!.!.!.!.!.!.!.!.!.!.!.!.6.N O X $ Z ;.h.n.B.B.B.K.T.W.W.Q.T.T.I.P.U.J.N.h.p.F 4 !.!.!.!.!.!.!.!.!.!.",
"!.!.!.!.!.!.!.!.!.!.!.!.~ ~ $ o j I 1.p.b.B.S.S.J.K.K.U.K.D.N.M.N.N.v.l.h.5.B ! !.!.!.!.!.!.!.!.!.!.",
"!.!.!.!.!.!.!.!.!.!.!.!.9.H = * I X.1.u.l.B.D.J.x.N.T.S.x.H.P.U.U.B.b.p.5.1.M !.!.!.!.!.!.!.!.!.!.!.",
"!.!.!.!.!.!.!.!.!.!.!.!.v.3.9 u X.1.1.5.l.N.S.K.K.T.n.B.U.U.N.l.h.x.x.l.p.=.o.!.!.!.!.!.!.!.!.!.!.!.",
"!.!.!.!.!.!.!.!.!.!.!.!.l.u.s N <.>.>.5.p.c.F.P.P.K.K.K.N.B.D.B.n.b.j.h.p.-.!.!.!.!.!.!.!.!.!.!.!.!.",
"!.!.!.!.!.!.!.!.!.!.!.!.n.m.Z R 5.>.J R ;.<.c.J.T.T.T.L.K.K.H.D.J.H.N.l.1.&.!.!.!.!.!.!.!.!.!.!.!.!.",
"!.!.!.!.!.!.!.!.!.!.!.!.K.d.I *.u.X.N M z l A :.x.K.S.K.K.J.K.T.K.D.n.u.] !.!.!.!.!.!.!.!.!.!.!.!.!.",
"!.!.!.!.!.!.!.!.!.!.!.!.Z.d.Z ( h.d.( M n n l l c F e.x.n.n.v.x.s.9.` F F !.!.!.!.!.!.!.!.!.!.!.!.!.",
"!.!.!.!.!.!.!.!.!.!.!.!.!.A.F ] h.M.y.Q F ) j C M v H 6.s.e.X.B k u u a b !.!.!.!.!.!.!.!.!.!.!.!.!.",
"!.!.!.!.!.!.!.!.!.!.!.!.!.!.G ] p.M.n.u.( ;.>.6.:.X.( 6.e.T / N , C k B / !.!.!.!.!.!.!.!.!.!.!.!.!.",
"!.!.!.!.!.!.!.!.!.!.!.!.!.!.o.Q 8.n.D.n.u.u.w.1.w.e.9.h.8.} w.;._ { Z } Y.!.!.!.!.!.!.!.!.!.!.!.!.!.",
"!.!.!.!.!.!.!.!.!.!.!.!.!.!.U R l.c.J.K.D.c.l.v.c.l.y.M.-.e.e.<.=.] <.6.!.!.!.!.!.!.!.!.!.!.!.!.!.!.",
"!.!.!.!.!.!.!.!.!.!.!.!.!.!.U I 5.b.S.P.K.H.B.D.l.u.n.J.<.d.c.y.9.6.u.p.!.!.!.!.!.!.!.!.!.!.!.!.!.!.",
"!.!.!.!.!.!.!.!.!.!.!.!.!.!.#.F R 5.c.S.H.H.S.n.h.h.B.F.5.s.n.x.h.h.h.E.!.!.!.!.!.!.!.!.!.!.!.!.!.!.",
"!.!.!.!.!.!.!.!.!.!.!.!.!.!.!.F T } 3.s.l.h.u.u.s.j.H.H.6.u.v.l.x.h.f.z.!.!.!.!.!.!.!.!.!.!.!.!.!.!.",
"!.!.!.!.!.!.!.!.!.!.!.!.!.!.!.L Q X.,.<.,.,.l.j.F.x.P.K.4.4.3.f.h.a.5.!.!.!.!.!.!.!.!.!.!.!.!.!.!.!.",
"!.!.!.!.!.!.!.!.!.!.!.!.!.!.!.` ~ ( :.} :.,.s.6.i.x.P.H.i.4.,.,.3.X./ !.!.!.!.!.!.!.!.!.!.!.!.!.!.!.",
"!.!.!.!.!.!.!.!.!.!.!.!.!.!.!.@.X.( ,.:.=.=.e.9.~ I h.f.;.;.,.Q T P %.!.!.!.!.!.!.!.!.!.!.!.!.!.!.!.",
"!.!.!.!.!.!.!.!.!.!.!.!.!.!.!.U R } ,.9.<.H ~ 9.w.T Z T ] ~ T ~ Y [ !.!.!.!.!.!.!.!.!.!.!.!.!.!.!.!.",
"!.!.!.!.!.!.!.!.!.!.!.!.!.!.!.!.A ~ ~ 4.6.6.J G ~ 9.q.<.~ Y } =.X.!.!.!.!.!.!.!.!.!.!.!.!.!.!.!.!.!.",
"!.!.!.!.!.!.!.!.!.!.!.!.!.!.!.!...Y Q ,.6.w.q.9.9.~ J H F ~ -._ %.!.!.!.!.!.!.!.!.!.!.!.!.!.!.!.!.!.",
"!.!.!.!.!.!.!.!.!.!.!.!.!.!.!.!.!.K Y ~ 4.q.q.q.8.,.,.~ ] [ / +.!.!.!.!.!.!.!.!.!.!.!.!.!.!.!.!.!.!.",
"!.!.!.!.!.!.!.!.!.!.!.!.!.!.!.!.!.U H / :.9.u.q.,.( ,.| ] K &.!.!.!.!.!.!.!.!.!.!.!.!.!.!.!.!.!.!.!.",
"!.!.!.!.!.!.!.!.!.!.!.!.!.!.!.!.!.!.! Y :.w.s.u.w.,.,.| F ! !.!.!.!.!.!.!.!.!.!.!.!.!.!.!.!.!.!.!.!.",
"!.!.!.!.!.!.!.!.!.!.!.!.!.!.!.!.!.!.!.D -.<.s.s.u.9.<._ ! !.!.!.!.!.!.!.!.!.!.!.!.!.!.!.!.!.!.!.!.!.",
"!.!.!.!.!.!.!.!.!.!.!.!.!.!.!.!.!.!.!.!.! ~ 9.e.w.9.} &.!.!.!.!.!.!.!.!.!.!.!.!.!.!.!.!.!.!.!.!.!.!.",
"!.!.!.!.!.!.!.!.!.!.!.!.!.!.!.!.!.!.!.!.!.$._ / / ' +.!.!.!.!.!.!.!.!.!.!.!.!.!.!.!.!.!.!.!.!.!.!.!.",
"!.!.!.!.!.!.!.!.!.!.!.!.!.!.!.!.!.!.!.!.!.!.!.!.!.!.!.!.!.!.!.!.!.!.!.!.!.!.!.!.!.!.!.!.!.!.!.!.!.!.",
"!.!.!.!.!.!.!.!.!.!.!.!.!.!.!.!.!.!.!.!.!.!.!.!.!.!.!.!.!.!.!.!.!.!.!.!.!.!.!.!.!.!.!.!.!.!.!.!.!.!.",
"!.!.!.!.!.!.!.!.!.!.!.!.!.!.!.!.!.!.!.!.!.!.!.!.!.!.!.!.!.!.!.!.!.!.!.!.!.!.!.!.!.!.!.!.!.!.!.!.!.!.",
"!.!.!.!.!.!.!.!.!.!.!.!.!.!.!.!.!.!.!.!.!.!.!.!.!.!.!.!.!.!.!.!.!.!.!.!.!.!.!.!.!.!.!.!.!.!.!.!.!.!.",
"!.!.!.!.!.!.!.!.!.!.!.!.!.!.!.!.!.!.!.!.!.!.!.!.!.!.!.!.!.!.!.!.!.!.!.!.!.!.!.!.!.!.!.!.!.!.!.!.!.!."
};
